<svg width="975" height="289" viewBox="0 0 975 289" fill="none" xmlns="http://www.w3.org/2000/svg">
<path d="M896.615 0.711426H974.115V281.336L973.49 288.836H897.24L896.615 288.211V0.711426Z" fill="#04947C"/>
<path d="M800.365 0.711426H877.24L877.865 1.33643V268.836L877.24 288.836H800.99L800.365 288.211V0.711426Z" fill="#04947C"/>
<path d="M704.115 0.711426H780.99L781.615 12.5864V256.336L780.99 288.836H704.74L704.115 288.211V0.711426Z" fill="#04947C"/>
<path d="M194.74 36.9614H198.49L199.088 109.249C199.106 111.465 199.41 113.669 199.993 115.807L200.457 117.507C200.811 118.803 201.352 120.04 202.064 121.179C203.405 123.326 205.313 125.06 207.577 126.193L208.35 126.579C209.687 127.248 211.108 127.735 212.575 128.028L213.958 128.305C215.725 128.658 217.523 128.836 219.325 128.836H226.932C229.632 128.836 232.326 128.586 234.979 128.089L238.74 127.383C240.233 127.103 241.679 126.617 243.038 125.938L243.242 125.836C245.056 124.929 246.67 123.668 247.99 122.128C249.148 120.778 250.06 119.234 250.685 117.568L250.95 116.86C251.393 115.68 251.719 114.461 251.927 113.218L251.969 112.965C252.15 111.881 252.249 110.785 252.267 109.686L252.865 73.2114L257.24 71.9614L294.74 66.3364L300.365 65.7114L300.953 106.869C300.978 108.594 301.16 110.312 301.499 112.004L301.694 112.979C302.056 114.793 302.659 116.549 303.486 118.204L303.949 119.129C304.884 120.999 306.183 122.662 307.769 124.022C309.074 125.141 310.554 126.037 312.15 126.675L313.991 127.412C315.32 127.943 316.702 128.33 318.114 128.565C319.196 128.746 320.292 128.836 321.389 128.836H327.086C329.679 128.836 332.262 128.518 334.778 127.89L338.195 127.035C340.04 126.574 341.774 125.749 343.295 124.608C345.068 123.278 346.506 121.555 347.497 119.574L347.899 118.768C348.705 117.156 349.266 115.432 349.562 113.654L349.945 111.356C350.225 109.679 350.377 107.983 350.399 106.283L350.99 61.9614L360.99 60.0864L394.74 55.0864H398.49L399.074 107.644C399.101 110.094 399.472 112.527 400.176 114.873L400.511 115.989C400.83 117.051 401.262 118.075 401.8 119.044C403.308 121.759 405.601 123.955 408.379 125.343L410.374 126.341C412.029 127.168 413.778 127.789 415.584 128.191L415.839 128.247C417.601 128.639 419.401 128.836 421.206 128.836H424.459C426.718 128.836 428.964 128.507 431.128 127.858L432.037 127.585C433.416 127.171 434.734 126.575 435.955 125.811C438.035 124.512 439.791 122.756 441.09 120.676C441.853 119.455 442.45 118.137 442.864 116.758L443.153 115.793C443.791 113.666 444.127 111.46 444.149 109.239L444.74 51.3364L449.115 50.0864L487.865 44.4614H492.24L492.865 67.5864L493.446 107.639C493.475 109.681 493.722 111.715 494.181 113.706L494.772 116.267C495.164 117.966 495.861 119.58 496.828 121.031C498.323 123.273 500.415 125.052 502.869 126.168L503.822 126.601C505.261 127.255 506.78 127.718 508.339 127.978L510.593 128.354C512.521 128.675 514.473 128.836 516.427 128.836H555.912C558.041 128.836 560.162 128.595 562.236 128.116L564.556 127.581C566.331 127.171 568.017 126.444 569.532 125.434C571.716 123.977 573.483 121.976 574.657 119.628L574.86 119.221C575.609 117.723 576.13 116.122 576.406 114.47L576.886 111.589C577.122 110.173 577.248 108.74 577.263 107.304L577.865 51.3364L581.615 50.0864L620.365 44.4614H625.365V113.211L623.49 130.086L623.303 130.883C621.763 137.426 619.737 143.845 617.24 150.086L616.903 150.705C614.631 154.869 612.027 158.843 609.115 162.586L608.694 163.068C606.067 166.07 603.101 168.757 599.855 171.076C597.284 172.912 594.55 174.509 591.686 175.845L591.247 176.05C588.165 177.488 584.961 178.647 581.673 179.512L580.081 179.931C576.525 180.867 572.906 181.54 569.252 181.946L563.49 182.586H518.255C515.499 182.586 512.746 182.391 510.017 182.001C506.921 181.559 503.865 180.868 500.88 179.935L499.316 179.446C496.688 178.625 494.148 177.548 491.732 176.23C489.575 175.053 487.525 173.69 485.607 172.155L482.24 169.461L475.99 163.211L474.74 165.711L468.49 171.336L460.365 176.336L450.365 180.086L441.615 181.961L435.365 182.586H422.865L409.74 180.086L400.365 176.336L393.49 171.961L387.24 166.336L381.615 160.711L372.865 169.461L363.49 175.711L354.74 179.461L344.74 181.961L339.115 182.586H327.24L315.365 180.711L306.615 178.211L296.615 173.211L289.74 167.586L284.115 161.961L283.49 160.711L280.99 161.961L274.115 168.211L262.865 175.086L250.99 179.461L237.865 181.961L230.99 182.586H211.615L198.49 180.711L189.115 178.211L179.115 173.211L172.24 168.211L165.99 161.961L160.365 153.211L155.99 143.836L152.865 132.586L150.99 120.711V118.836H94.7402V176.336L93.4902 189.461L90.9902 201.961L89.4986 206.436C88.4111 209.699 87.0933 212.88 85.5553 215.956C83.765 219.537 81.6819 222.964 79.3273 226.201L77.8652 228.211L77.0726 229.103C74.2765 232.249 71.1367 235.071 67.7119 237.517C65.3178 239.227 62.7934 240.747 60.162 242.063L59.1339 242.577C55.7933 244.247 52.3262 245.651 48.7647 246.776L42.2402 248.836L30.9902 250.711L24.7402 251.336H8.49023L7.24023 246.961L0.365234 201.961V198.836C1.18863 198.425 2.092 198.198 3.01221 198.172L19.3165 197.706C22.0896 197.626 24.8441 197.225 27.5247 196.511L29.6389 195.947C31.7771 195.377 33.8153 194.482 35.6823 193.294C38.355 191.593 40.6217 189.326 42.3226 186.654L42.4354 186.476C43.55 184.725 44.4178 182.828 45.0143 180.839L45.3321 179.78C45.7702 178.32 46.0985 176.828 46.3142 175.319L46.6152 173.211L47.2402 85.7114L55.9902 78.2114L62.2402 73.2114L70.3652 66.3364L71.6152 65.7114H150.99V43.8364L156.615 42.5864L194.74 36.9614Z" fill="#04947C"/>
<circle cx="185.287" cy="226.961" r="26.0957" fill="#04947C"/>
<circle cx="124.895" cy="226.961" r="26.0957" fill="#04947C"/>
<circle cx="608.729" cy="226.961" r="26.0957" fill="#04947C"/>
<circle cx="548.336" cy="226.961" r="26.0957" fill="#04947C"/>
</svg>
