<svg width="77" height="131" viewBox="0 0 77 131" fill="none" xmlns="http://www.w3.org/2000/svg">
<path d="M49.0053 130.79C39.0781 130.79 38.0484 130.094 37.5152 129.38L29.8674 121.733L29.7841 121.189C29.1843 117.224 29.7808 94.5369 30.4106 70.5204C30.5505 65.2052 30.6938 59.7367 30.8205 54.6182C18.4906 59.4035 17.2343 59.2436 16.5678 59.1403C15.878 59.0403 15.4648 58.5804 15.2582 58.2938L8.44678 51.4824C7.81363 51.0459 7.47705 50.2561 7.23046 49.6796C6.06412 46.9404 4.14799 40.0723 2.74506 34.5572C-0.267427 22.7339 0.0658125 22.2906 0.569004 21.6175L0.665641 21.5009C4.15799 17.622 44.5166 1.89973 47.5191 0.900009L47.849 0.790039L48.1956 0.820031C49.8651 0.973321 65.4607 3.0594 68.5932 5.74531L68.6865 5.83195L76.5342 13.6797V14.3695C76.5342 18.745 76.5209 121.619 75.5079 128.374L75.3579 129.384L74.3882 129.707C73.0686 130.147 61.9184 130.567 56.24 130.693C53.4108 130.76 51.0214 130.79 49.0053 130.79ZM39.8379 126.988C43.0637 127.974 66.627 127.174 72.3221 126.661C73.0086 115.868 73.1985 50.4094 73.2019 15.0627L66.3871 8.2446C64.6076 6.83167 53.3175 4.68561 48.2456 4.17575C41.6574 6.45511 8.43345 19.898 3.60148 23.347C4.17798 27.4159 9.04661 46.1739 10.4962 48.8132L17.4409 55.7579C18.5573 55.5179 21.9496 54.5382 31.9435 50.6027L34.2795 49.6829L34.2195 52.1922C34.0796 58.0106 33.9129 64.4121 33.7496 70.607C33.1998 91.5178 32.58 115.111 33.0265 120.17L39.8379 126.988Z" fill="black"/>
<path d="M41.6441 123.432C31.1404 123.432 30.5972 122.652 30.0673 121.896L29.8441 121.576L29.7841 121.19C29.1843 117.224 29.7808 94.5437 30.4106 70.5338C30.6505 61.433 30.8971 52.0557 31.0571 44.2445C28.9843 45.0843 25.7919 46.3639 22.5295 47.6202C11.0727 52.029 9.8897 51.8857 9.21323 51.7824C8.05356 51.6158 7.56036 50.4528 7.23046 49.683C6.06412 46.9438 4.14799 40.0757 2.74506 34.5606C-0.267427 22.7373 0.0658125 22.2941 0.569004 21.6209L0.665641 21.5043C4.15799 17.6254 44.5166 1.90314 47.5191 0.903425L47.849 0.793457L48.1956 0.823449C49.8651 0.976739 65.4607 3.06282 68.5932 5.74873L69.1763 6.24859V7.01504C69.1763 11.3905 69.163 114.265 68.1499 121.02L68 122.029L67.0303 122.353C65.7106 122.792 54.5604 123.212 48.882 123.339C46.0528 123.402 43.6635 123.432 41.6441 123.432ZM32.9865 119.743C37.6485 120.55 59.5024 119.797 64.9608 119.3C65.6473 108.53 65.8373 43.3215 65.8406 7.92145C62.9714 6.52517 52.9376 4.64904 48.2422 4.17584C41.6541 6.45519 8.43012 19.8981 3.59815 23.3471C4.14799 27.2327 8.6134 44.5245 10.2763 48.3634C13.2688 47.6702 23.2526 43.8713 32.1401 40.2023L34.4894 39.2326L34.4428 41.7752C34.2862 50.0529 34.0129 60.51 33.7463 70.6204C33.2065 90.988 32.6033 113.902 32.9865 119.743Z" fill="black"/>
</svg>
