<svg width="90" height="131" viewBox="0 0 90 131" fill="none" xmlns="http://www.w3.org/2000/svg">
<path d="M37.3079 130.79C32.5183 130.79 28.2262 130.774 24.7236 130.74C13.2138 130.631 12.9319 130.432 12.378 130.034L12.2652 129.954L4.93482 122.624C4.36762 122.166 3.52181 120.717 1.99271 109.837C1.60795 107.101 0.393954 97.9294 0.868274 94.7286L0.941246 94.2443L1.26631 93.8761C6.60986 87.8095 12.5372 81.922 18.2688 76.2301C30.4419 64.1433 41.9384 52.7265 41.9384 44.872V44.8355C33.9346 44.8289 30.1102 49.6251 28.4783 51.675C28.3589 51.8242 28.2528 51.9569 28.1566 52.0763L27.1482 53.3069L25.8778 52.3516C25.032 51.7181 23.6456 50.3383 21.7549 48.2519L18.4546 44.9516C16.3848 43.3363 11.6483 37.8932 8.07262 33.4485C0.0224622 23.448 0.0224609 21.6635 0.0224609 20.9902C0.0224609 18.6816 3.91984 13.5934 10.2187 9.40086C16.1195 5.47363 26.3787 0.793457 41.7626 0.793457C56.6522 0.793457 68.7457 6.1934 75.8572 16.0082C84.9953 22.6818 89.8247 32.8216 89.8247 45.3496C89.8247 53.0681 87.6753 60.5312 83.2539 68.1634C79.8872 73.9746 75.0744 80.1308 68.2415 87.3451L79.8375 86.9471L87.7649 94.8812C88.1762 95.3654 89.42 96.8382 89.1812 111.983C89.1414 114.444 88.886 126.843 87.6754 129.112C87.2939 129.825 86.6969 130.12 86.1695 130.17C83.6685 130.485 62.1119 130.701 48.9304 130.764C44.8506 130.78 40.9367 130.79 37.3079 130.79ZM14.1592 127.155C20.0633 127.792 76.9816 127.311 84.8958 126.939C85.2507 125.115 85.7151 120.01 85.8511 112.265C86.0169 102.822 85.5326 97.9692 85.1644 96.9708L78.5041 90.3105L60.0985 90.9407L63.0107 87.9787C77.111 73.6396 86.5012 60.9027 86.5012 45.3496C86.5012 33.8333 82.0731 24.5625 73.6945 18.539L73.4723 18.3798L73.3131 18.1542C66.865 9.09902 55.6571 4.11037 41.7592 4.11037C14.6667 4.11037 4.01603 18.8441 3.35597 20.9835C4.21173 23.9091 17.423 40.0326 20.5442 42.3743L20.6371 42.444L24.1829 45.9931C25.2974 47.2237 26.1034 48.0595 26.6805 48.6267C28.8863 46.0196 33.52 41.5153 41.9019 41.5153C42.4724 41.5153 43.0429 41.5551 43.6963 41.638L44.9568 41.8005L45.1292 43.0576C45.2122 43.6613 45.2553 44.2716 45.2553 44.8687C45.2553 54.1063 33.8318 65.4468 20.6073 78.5818C15.0382 84.1111 9.2833 89.8262 4.10559 95.6739C3.76063 100.414 6.33124 117.864 7.31305 120.305L14.1592 127.155ZM86.1462 126.866L86.1728 126.87C86.1628 126.87 86.1529 126.866 86.1462 126.866Z" fill="black"/>
<path d="M29.9809 123.463C25.1946 123.463 20.9025 123.446 17.3998 123.413C6.03604 123.307 5.6181 123.111 5.07413 122.723C4.50693 122.342 3.65117 121.635 1.99603 109.837C1.61126 107.101 0.397272 97.9293 0.871591 94.7285L0.944564 94.2442L1.26962 93.876C6.61318 87.8094 12.5405 81.9219 18.2722 76.23C30.4452 64.1432 41.9417 52.7264 41.9417 44.8719C41.9417 43.1438 41.411 37.5116 34.5814 37.5116C26.6042 37.5116 22.7865 42.3046 21.1579 44.3511C21.0385 44.5004 20.9323 44.6331 20.8361 44.7525L19.8278 45.9831L18.5574 45.0278C16.5407 43.5153 11.7113 37.9661 8.07262 33.4451C0.0224622 23.4446 0.0224609 21.6601 0.0224609 20.9868C0.0224609 18.6782 3.91984 13.59 10.2187 9.39744C16.1195 5.47021 26.3787 0.790039 41.7626 0.790039C53.4149 0.790039 63.4287 4.11359 70.716 10.3992C78.4245 17.0496 82.501 26.6023 82.501 38.0224C82.501 55.4927 71.7774 69.7322 53.1429 87.8592L79.9204 86.9404L80.4412 87.554C80.8525 88.0383 82.0963 89.511 81.8575 104.656C81.8177 107.117 81.5623 119.516 80.3516 121.785C79.9702 122.498 79.3731 122.793 78.8457 122.843C76.3414 123.158 54.7881 123.373 41.6067 123.436C37.5235 123.453 33.6096 123.463 29.9809 123.463ZM7.16047 119.861C14.5705 120.455 69.7938 119.98 77.572 119.612C77.9269 117.788 78.3913 112.683 78.5273 104.938C78.6666 96.8646 78.3349 92.1479 78.0065 90.3236L48.9337 91.322L47.5771 88.6055L48.4594 87.7596C67.9132 69.1451 79.1774 55.0382 79.1774 38.0224C79.1774 17.4211 64.4901 4.11027 41.7559 4.11027C14.6633 4.11027 4.01271 18.844 3.35265 20.9834C4.12549 23.6204 14.942 36.9909 19.3501 41.3095C21.5526 38.7024 26.1863 34.1914 34.5781 34.1914C42.4591 34.1914 45.2553 39.9429 45.2553 44.8686C45.2553 54.1062 33.8318 65.4467 20.6073 78.5817C15.0382 84.111 9.2833 89.8261 4.10559 95.6738C3.77058 100.188 6.08911 116.239 7.16047 119.861ZM78.8225 119.542L78.849 119.546C78.8391 119.542 78.8291 119.542 78.8225 119.542Z" fill="black"/>
</svg>
