<svg width="94" height="131" viewBox="0 0 94 131" fill="none" xmlns="http://www.w3.org/2000/svg">
<path d="M49.3096 130.79C24.4772 130.79 11.4545 119.065 8.02926 115.44L2.0047 109.416C1.55892 108.99 1.14265 108.577 0.775535 108.183L0.460868 107.849L0.365812 107.4C0.205201 106.656 0.313368 105.486 2.16859 102.005C3.33548 99.8117 4.96126 97.1633 6.73781 94.5411C9.36987 90.6635 14.2898 83.9538 17.6987 82.5936L18.7017 82.1937L19.4654 82.9574C21.0552 84.5471 27.0535 89.7391 37.4506 89.7391C44.96 89.7391 46.6022 85.8189 46.9463 83.7867C45.5631 83.5441 44.0324 83.4229 42.3804 83.4229C41.3413 83.4229 38.8404 83.4622 36.4214 83.5015C33.8516 83.5441 31.1933 83.5867 30.0035 83.5867H29.325L21.4649 75.707C20.1046 73.9271 19.6228 68.0927 19.4622 63.5103C19.295 58.8592 19.3999 52.6019 20.1833 48.9898C20.5832 47.1509 21.124 46.1676 21.9959 45.7054L22.3564 45.5121H22.7662C23.7167 45.5121 25.1163 45.5416 26.6798 45.5842C25.4769 44.4697 23.7888 42.6801 21.3239 39.8186C19.0197 38.4845 14.1128 32.9451 4.33192 20.6665C3.69931 19.8733 3.19126 19.2341 2.84381 18.8047L1.95881 17.7132L2.90609 16.6742C9.10437 9.85638 19.9637 0.790039 42.5705 0.790039C57.786 0.790039 70.4284 6.31637 77.3117 15.9596C85.6438 22.0005 90.2294 31.1226 90.2294 41.6803C90.2294 55.6961 82.661 63.7234 78.6457 66.9946C79.5668 67.9911 80.4157 69.0596 81.1795 70.1905C85.0145 72.7766 93.1991 79.8992 93.1991 93.502C93.1991 105.204 88.561 114.922 79.7831 121.602C72.0017 127.529 61.1785 130.79 49.3096 130.79ZM3.69603 106.489C3.88814 106.681 4.08264 106.871 4.27948 107.059L4.30898 107.088L10.3958 113.179C13.5687 116.542 25.7457 127.516 49.3063 127.516C68.0388 127.516 89.918 118.61 89.918 93.5086C89.918 81.1612 82.3529 74.881 79.1014 72.7504L78.8195 72.5636L78.6326 72.2817C77.6048 70.7236 76.398 69.2913 75.0369 68.014L73.5586 66.6242L75.227 65.4705C77.9771 63.5726 86.9484 56.2435 86.9484 41.6836C86.9484 31.9781 82.8774 23.9508 75.1779 18.4671L74.9484 18.3032L74.7878 18.0705C68.5633 9.17132 56.8223 4.06782 42.5705 4.06782C22.3827 4.06782 12.2117 11.6526 6.2822 17.8574C6.47231 18.0934 6.67554 18.3524 6.89515 18.6277C16.086 30.1622 21.4944 36.3408 22.9661 36.9866L23.343 37.1373L23.602 37.4422C27.1027 41.5263 28.8137 43.1586 29.6069 43.8076C33.0125 40.9854 39.2304 38.2288 44.5241 38.2288C45.7237 38.2288 46.8808 38.3239 47.9592 38.5107L49.3031 38.7434L49.3162 40.0677C49.3194 40.1201 49.3227 40.1693 49.3227 40.2217C49.3227 45.8792 44.8158 49.1209 36.9557 49.1209C35.4676 49.1209 32.8027 49.0422 29.9871 48.957C27.65 48.8882 25.2442 48.8161 23.6085 48.7964C23.1234 50.2026 22.5892 54.4309 22.6777 61.0553C22.7727 68.273 23.5299 72.7701 24.0347 73.6649L30.6754 80.3057C32.0193 80.2959 34.222 80.2598 36.3657 80.2237C38.9092 80.1811 41.3118 80.1418 42.3771 80.1418C44.8387 80.1418 47.084 80.3909 49.0474 80.8793L50.2372 81.1776L50.293 82.4657C50.3028 82.5739 50.3093 82.6821 50.3093 82.7935C50.3093 86.5892 47.6019 93.0136 37.4473 93.0136C27.2567 93.0136 20.7569 88.4837 18.0691 86.1336C16.4564 87.3037 13.6146 90.316 9.79271 95.8751C6.35759 100.88 4.19098 104.978 3.69603 106.489ZM32.4454 45.7513C34.2744 45.8038 35.9396 45.8431 36.9524 45.8431C40.6661 45.8431 45.019 45.0597 45.8876 41.5558C45.4451 41.523 44.9862 41.5066 44.5208 41.5066C40.1482 41.5066 35.2807 43.6994 32.4454 45.7513Z" fill="black"/>
<path d="M42.0723 123.553C17.2005 123.553 4.17459 111.792 0.775535 108.186L0.460868 107.852L0.365812 107.403C0.205201 106.659 0.313368 105.489 2.16859 102.008C3.33548 99.8148 4.96126 97.1664 6.73781 94.5442C9.36987 90.6665 14.2898 83.9569 17.6987 82.5966L18.7017 82.1968L19.4654 82.9605C21.0552 84.5502 27.0535 89.7422 37.4506 89.7422C46.5727 89.7422 47.0348 83.9602 47.0348 82.7999C47.0348 76.831 38.7158 76.1886 35.1398 76.1886C34.1007 76.1886 31.5998 76.2279 29.1808 76.2673C26.611 76.3099 23.9527 76.3525 22.7629 76.3525H21.9533L21.4616 75.71C20.1013 73.9302 19.6195 68.0958 19.4589 63.5134C19.2917 58.8623 19.3966 52.605 20.18 48.9929C20.5799 47.154 21.1207 46.1707 21.9926 45.7085L22.3532 45.5151H22.7629C24.3755 45.5151 27.2764 45.6004 30.0822 45.6856C32.7535 45.7642 35.5134 45.8462 36.9557 45.8462C41.1021 45.8462 46.0449 44.8694 46.0449 40.2248C46.0449 34.8525 39.9188 34.2724 37.2867 34.2724C32.0226 34.2724 26.0472 37.442 23.756 39.7331L23.2283 40.2608L22.481 40.2084C20.6651 40.0806 17.3578 37.0224 4.32865 20.6696C3.69931 19.8763 3.18798 19.2372 2.84054 18.8111L1.95553 17.7196L2.90281 16.6805C9.10109 9.86273 19.9604 0.796387 42.5672 0.796387C66.7441 0.796387 82.9888 14.3205 82.9888 34.4493C82.9888 47.3769 76.4005 56.3974 70.0186 60.8387C72.6966 61.9302 75.9645 64.051 78.8096 67.1813C82.071 70.7737 85.9617 77.0015 85.9617 86.271C85.9617 97.9727 81.3237 107.691 72.5458 114.371C64.7611 120.291 53.9411 123.553 42.0723 123.553ZM3.69603 106.488C7.56381 110.356 19.6752 120.275 42.0723 120.275C60.8048 120.275 82.684 111.369 82.684 86.2678C82.684 70.9343 70.9364 63.969 66.8883 63.2938L65.5182 63.0644V59.7145L66.3705 59.249C67.7373 58.4984 79.7143 51.4414 79.7143 34.4461C79.7143 16.2773 64.7873 4.07089 42.5705 4.07089C22.3827 4.07089 12.2117 11.6557 6.2822 17.8605C6.47231 18.0965 6.67554 18.3522 6.89515 18.6275C15.0962 28.9197 20.2849 34.9476 22.3564 36.5865C25.7588 33.7577 31.9865 30.9946 37.2933 30.9946C44.7174 30.9946 49.3293 34.5313 49.3293 40.2248C49.3293 45.8822 44.8223 49.124 36.9622 49.124C35.4741 49.124 32.8093 49.0453 29.9937 48.9601C27.6566 48.8912 25.2507 48.8191 23.6151 48.7995C23.13 50.2056 22.5957 54.434 22.6842 61.0584C22.7662 67.2468 23.3332 71.4358 23.815 73.0681C25.172 73.055 27.1813 73.0223 29.1382 72.9895C31.6817 72.9469 34.0843 72.9075 35.1496 72.9075C44.6486 72.9075 50.3224 76.6049 50.3224 82.7966C50.3224 86.5923 47.615 93.0167 37.4604 93.0167C27.2698 93.0167 20.77 88.4901 18.0822 86.1367C16.4695 87.3068 13.6277 90.3191 9.80581 95.8782C6.35759 100.883 4.19098 104.981 3.69603 106.488Z" fill="black"/>
</svg>
