<svg width="106" height="131" viewBox="0 0 106 131" fill="none" xmlns="http://www.w3.org/2000/svg">
<path d="M76.1316 130.79C69.8618 130.79 63.2487 130.275 57.5663 129.001L57.0977 128.896L48.9832 120.781L49.0756 110.205C37.7998 110.443 19.8978 110.595 12.2948 110.096L11.6744 110.057L3.60616 101.988L3.50386 101.517C2.34229 96.2037 0.121451 79.4896 0.821032 73.7181L0.84743 73.4871L0.939827 73.2726C7.13706 58.7035 36.6581 11.8216 45.5645 1.40052L46.0859 0.790039L46.8878 0.823038C55.6919 1.18273 76.4319 2.68749 84.3418 5.04362L84.7411 5.16242L92.8094 13.2307L92.6642 71.8536C94.5748 71.9328 95.974 72.0186 96.8385 72.111L97.4193 72.1737L105.408 80.1628L105.531 80.5555C106.22 82.7961 105.762 101.718 105.603 107.489C105.59 108.506 104.884 109.087 103.511 109.219C103.118 109.255 102.574 109.291 101.848 109.324C100.673 109.38 99.0396 109.433 96.9936 109.483C94.9147 109.532 92.8259 109.565 91.4465 109.588C91.463 112.083 91.5719 117.706 91.7732 126.381C91.7996 127.477 91.8128 128.17 91.8128 128.229V129.661L90.3971 129.863C86.3745 130.43 81.3719 130.79 76.1316 130.79ZM58.751 125.886C68.1029 127.889 80.306 127.774 88.4766 126.784C88.4733 126.678 88.4733 126.569 88.47 126.454C88.4139 123.986 88.305 119.395 88.2324 115.412C88.0806 107.384 88.0806 107.384 88.6482 106.803L89.1333 106.305H89.8295C91.4597 106.295 99.2673 106.169 102.343 105.994C102.61 95.5602 102.719 84.3009 102.429 81.8458L95.9245 75.3416C94.8454 75.2558 93.1789 75.17 90.9548 75.0941L89.3576 75.038L89.5094 14.6002L83.0086 8.09934C75.4089 5.9841 56.2001 4.55194 47.5643 4.16255C38.2387 15.4977 10.272 59.9739 4.06814 74.3418C3.55006 79.4995 5.39801 94.3887 6.62558 100.345L13.1264 106.843C21.3663 107.314 39.9514 107.12 50.7025 106.869L52.4052 106.829L52.2963 119.428L58.751 125.886Z" fill="black"/>
<path d="M68.8456 123.504C62.5758 123.504 55.9628 122.989 50.2803 121.715L48.9802 121.425L49.1452 102.721C40.209 103.054 14.5753 103.44 5.01216 102.81L3.77469 102.728L3.51069 101.517C2.34913 96.2037 0.128287 79.4896 0.827868 73.7181L0.854268 73.4871L0.946665 73.2726C7.1439 58.7035 36.6649 11.8216 45.5714 1.40052L46.0928 0.790039L46.8946 0.823038C55.6988 1.18273 76.4387 2.68749 84.3486 5.04362L85.53 5.39671L85.365 71.6325C88.3085 71.6952 94.41 71.8536 96.8454 72.1077L97.931 72.2232L98.2511 73.266C98.9408 75.5066 98.4821 94.425 98.3237 100.197C98.3105 101.213 97.6077 101.797 96.2316 101.926C95.8389 101.962 95.2944 101.998 94.5717 102.031C93.397 102.087 91.7635 102.14 89.7176 102.19C87.6353 102.239 85.5498 102.272 84.1704 102.295C84.1869 104.79 84.2958 110.413 84.4971 119.089C84.5235 120.184 84.5367 120.874 84.5367 120.933V122.365L83.121 122.567C79.0886 123.144 74.0859 123.504 68.8456 123.504ZM52.2999 118.772C61.533 120.593 73.2609 120.458 81.1873 119.498C81.184 119.392 81.184 119.283 81.1807 119.171C81.1246 116.703 81.0157 112.113 80.9398 108.13C80.788 100.101 80.788 100.101 81.3556 99.5201L81.8407 99.0218H82.537C84.1671 99.0119 91.9747 98.8865 95.0502 98.7116C95.2977 89.0891 95.4099 78.7669 95.1954 75.2921C91.3378 75.038 83.7579 74.9093 83.6721 74.906L82.0453 74.8796L82.2136 7.89475C74.1486 5.895 55.91 4.54204 47.5579 4.16255C38.239 15.4977 10.2722 59.9739 4.06838 74.3418C3.57339 79.2949 5.25305 93.2172 6.47732 99.5894C17.4462 100.134 44.5616 99.6653 50.7225 99.3485L52.4715 99.2594L52.2999 118.772Z" fill="black"/>
<path d="M52.687 44.3779V71.7036H37.3643L52.687 44.3779Z" stroke="black" stroke-width="3"/>
<path d="M52.6002 58.4209L45.3955 71.5825" stroke="black" stroke-width="3" stroke-linecap="round"/>
</svg>
