<svg width="97" height="131" viewBox="0 0 97 131" fill="none" xmlns="http://www.w3.org/2000/svg">
<path d="M49.7974 130.79C38.5088 130.79 28.5988 127.437 22.2717 124.621C15.5729 121.64 9.80849 117.833 8.08772 115.274L3.49461 110.68C2.13905 109.598 1.20135 108.637 0.70453 107.825L0.388672 107.308L0.484085 106.709C0.990774 103.544 5.9458 93.5616 6.93286 91.5907C13.1743 79.1505 14.1581 79.1505 15.1945 79.1505C16.0105 79.1505 16.7475 79.6342 18.715 80.9305C22.8278 83.6318 31.3855 89.258 40.5389 89.258C46.3724 89.258 49.3302 86.412 49.3302 80.7989C49.3302 80.641 49.327 80.4864 49.3204 80.3284C49.1032 80.3021 48.8861 80.2791 48.6656 80.2593C44.2666 79.9764 40.0322 81.8485 36.4788 83.7206L35.676 84.1418L17.4746 73.6395L9.57488 65.7397V65.0587C9.57488 52.3816 11.9109 14.5674 15.109 3.63411L15.3557 2.78524L16.2013 2.52532C18.5176 1.81135 75.9643 -0.317404 82.4065 1.52181L82.8178 1.64026L90.859 9.68148L90.8656 10.3527C90.8656 10.4251 90.9479 17.5714 90.9281 24.665C90.915 28.8403 90.8722 32.1864 90.7965 34.6047C90.6484 39.3623 90.5267 40.2473 89.3357 40.7244C88.9836 40.8659 88.2532 41.1587 51.028 42.126L50.9819 43.0407C52.298 42.9321 53.5713 42.8762 54.7854 42.8762C66.5873 42.8762 76.3921 47.5746 82.4328 56.1126C91.5072 62.4956 96.4984 73.6493 96.4984 87.5668C96.4984 101.165 91.9053 112.349 83.2192 119.909C75.0431 127.029 63.4846 130.79 49.7974 130.79ZM3.88285 106.591C4.18884 106.936 4.71856 107.456 5.61349 108.163L5.75497 108.288L10.6771 113.214L10.7791 113.382C12.8519 116.787 30.4972 127.5 49.7942 127.5C76.9777 127.5 93.2082 112.569 93.2082 87.5636C93.2082 74.4489 88.7533 64.45 80.3205 58.6461L80.0738 58.475L79.9027 58.2282C74.5101 50.4469 65.5904 46.1598 54.7887 46.1598C53.1173 46.1598 51.3175 46.275 49.4388 46.4987L47.5009 46.729L47.8957 38.9115L49.4191 38.872C62.7838 38.5266 82.5052 37.9574 87.355 37.6678C87.6577 34.1144 87.7004 22.0526 87.582 11.0568L81.1233 4.59485C74.3094 3.29851 25.5817 4.89755 17.9879 5.57862C15.0629 17.2127 12.9407 51.6281 12.8651 64.3809L19.4948 71.0073L35.7549 80.3876C39.5452 78.453 44.0133 76.6599 48.9058 76.9757C49.6987 77.0382 50.4522 77.1501 51.176 77.3015L52.2914 77.5383L52.4625 78.6669C52.5678 79.3611 52.6204 80.0784 52.6204 80.7956C52.6204 88.2611 48.2182 92.5449 40.5389 92.5449C30.3985 92.5449 21.288 86.5568 16.9087 83.6778C16.4415 83.3719 15.9414 83.0428 15.54 82.7928C13.0493 86.3857 5.16274 102.04 3.88285 106.591Z" fill="black"/>
<path d="M42.5324 123.525C31.2437 123.525 21.3337 120.173 15.0066 117.356C8.14658 114.306 2.26372 110.384 0.707459 107.825L0.391602 107.308L0.487017 106.709C0.993707 103.544 5.94873 93.5615 6.93579 91.5907C13.1773 79.1505 14.161 79.1505 15.1975 79.1505C16.0134 79.1505 16.7504 79.6342 18.718 80.9305C22.8307 83.6318 31.3885 89.258 40.5418 89.258C46.3753 89.258 49.3332 86.412 49.3332 80.7989C49.3332 76.0479 46.6648 73.4223 41.4038 72.9946C37.0048 72.7116 32.7704 74.5837 29.217 76.4558L28.4141 76.877L9.57781 66.0095V65.0586C9.57781 52.3815 11.9138 14.5674 15.1119 3.63409L15.3587 2.78522L16.2043 2.52529C18.5205 1.81132 75.9673 -0.320718 82.4094 1.52179L83.5873 1.85739L83.6005 3.08463C83.6005 3.15701 83.6827 10.3033 83.663 17.397C83.6498 21.5722 83.6071 24.915 83.5314 27.3366C83.3833 32.0942 83.2616 32.9793 82.0706 33.4564C81.7185 33.5978 80.9848 33.8907 43.7629 34.858L43.2891 44.2087C45.7929 43.6494 50.1228 42.8729 54.7883 42.8729C64.9484 42.8729 73.5457 46.2717 79.649 52.704C85.9201 59.3107 89.2333 68.8522 89.2333 80.2988C89.2333 93.8971 84.6402 105.081 75.9541 112.641C67.778 119.761 56.2195 123.525 42.5324 123.525ZM3.8792 106.607C7.14307 110.444 24.0843 120.235 42.5324 120.235C69.7159 120.235 85.9464 105.304 85.9464 80.2988C85.9464 59.2416 74.0063 46.1631 54.7916 46.1631C48.1652 46.1631 42.0553 47.9036 41.996 47.92L39.7818 48.5583L40.6372 31.6468L42.1606 31.6073C55.5253 31.2618 75.2467 30.6926 80.0964 30.4031C80.3926 26.9221 80.4419 15.2846 80.3301 4.47638C71.1767 3.40048 25.3378 4.91726 17.9941 5.5753C15.0889 17.1272 12.9766 51.1444 12.8713 64.1078L28.4931 73.1196C32.2867 71.185 36.7515 69.3918 41.644 69.7077C48.6324 70.2736 52.6267 74.3139 52.6267 80.7923C52.6267 88.2578 48.2244 92.5416 40.5451 92.5416C30.4047 92.5416 21.2942 86.5534 16.9149 83.6745C16.4477 83.3685 15.9476 83.0395 15.5462 82.7895C13.0457 86.3889 5.14263 102.08 3.8792 106.607Z" fill="black"/>
</svg>
