<svg width="99" height="131" viewBox="0 0 99 131" fill="none" xmlns="http://www.w3.org/2000/svg">
<path d="M53.4283 130.79C46.9534 130.79 40.4426 129.403 34.6061 126.774C28.1865 123.885 22.7636 119.651 18.4904 114.189C10.4652 107.897 0.987305 95.7382 0.987305 73.4245C0.987305 51.0619 11.0677 33.6988 19.5229 23.0712C29.9323 9.98781 41.1755 2.6335 46.1912 0.881235L46.4518 0.790039H46.7286C48.9239 0.790039 54.7572 5.00134 58.037 7.50923C63.499 11.688 68.1532 15.9709 70.5341 19.0097C74.0777 22.0713 78.4649 26.2859 79.5527 29.2139L80.0543 30.5688L78.771 31.23C72.4915 34.4642 65.7658 39.1217 60.5025 43.8313C70.2735 44.9094 78.7743 49.6776 84.2526 57.2567C90.8122 61.9859 98.5117 71.3042 98.5117 88.9799C98.5117 102.334 93.9226 113.264 85.246 120.583C77.3347 127.263 66.3325 130.79 53.4283 130.79ZM46.8752 4.10567C42.1819 5.92959 31.7041 12.9973 22.0731 25.1036C13.9404 35.324 4.24431 52.0064 4.24431 73.431C4.24431 94.5787 13.1652 105.939 20.6498 111.746L20.8127 111.873L20.9397 112.036C28.5709 121.885 40.4133 127.536 53.4283 127.536C79.6211 127.536 95.258 113.124 95.258 88.9864C95.258 72.4962 88.1284 63.9922 82.1486 59.7581L81.9206 59.5985L81.761 59.3705C76.2045 51.5341 67.0491 46.9743 56.6397 46.8603L52.7736 46.818L55.503 44.0821C60.8803 38.695 68.5473 33.0572 75.8234 29.1097C74.5597 27.2304 71.876 24.4684 68.2868 21.3776L68.1597 21.2701L68.0588 21.1398C63.043 14.6323 49.6176 5.0046 46.8752 4.10567Z" fill="black"/>
<path d="M46.2365 123.599C34.8305 123.599 23.6948 119.299 15.6891 111.802C6.07116 102.796 0.990234 89.5272 0.990234 73.4279C0.990234 51.0653 11.0707 33.7022 19.5258 23.0746C29.9352 9.99123 41.1784 2.63692 46.1942 0.884653L46.4547 0.793457H46.7316C49.5326 0.793457 58.3167 7.6983 60.0462 9.08253C63.2576 11.649 70.8855 18.0491 72.3642 22.0259L72.8658 23.3808L71.5825 24.0419C62.3131 28.8134 50.7181 37.5748 45.976 44.6392C48.9203 43.9455 52.3597 43.5937 56.242 43.5937C73.7028 43.5937 91.3232 55.4036 91.3232 81.7919C91.3232 95.1456 86.7341 106.076 78.0574 113.395C70.1397 120.071 59.1375 123.599 46.2365 123.599ZM46.8781 4.10257C42.1848 5.92324 31.707 12.9942 22.0728 25.1037C13.9401 35.3242 4.24398 52.0066 4.24398 73.4311C4.24398 105.838 25.3331 120.345 46.2365 120.345C72.4293 120.345 88.0662 105.933 88.0662 81.7951C88.0662 56.0062 70.9213 46.854 56.242 46.854C51.3761 46.854 47.3146 47.4272 44.1651 48.5607L43.0316 48.9678L41.237 46.5739L41.6376 45.6945C45.178 37.9363 57.8477 27.768 68.6414 21.9086C64.9447 16.2805 49.956 5.08293 46.8781 4.10257Z" fill="black"/>
<path d="M62.8223 81.3423C62.8223 87.8985 57.0776 93.394 49.7603 93.394C42.4429 93.394 36.6982 87.8985 36.6982 81.3423C36.6982 74.786 42.4429 69.2905 49.7603 69.2905C57.0776 69.2905 62.8223 74.786 62.8223 81.3423Z" stroke="black" stroke-width="3"/>
<path d="M62.8223 81.342C62.8223 87.0487 58.3971 91.5688 53.0664 91.5688C47.7357 91.5688 43.3105 87.0487 43.3105 81.342C43.3105 75.6354 47.7357 71.1152 53.0664 71.1152C58.3971 71.1152 62.8223 75.6354 62.8223 81.342Z" stroke="black" stroke-width="3"/>
</svg>
