<svg width="90" height="131" viewBox="0 0 90 131" fill="none" xmlns="http://www.w3.org/2000/svg">
<path d="M51.3015 130.79C51.0194 130.79 20.2275 128.361 13.16 122.561L13.0406 122.452L4.89464 114.306L37.5546 43.6371L10.3629 44.0916L2.26007 35.9888L2.1373 35.6172C1.27128 33.0192 0.610982 25.0889 0.279172 18.5324C-0.0360463 12.301 -0.241769 4.53998 0.557891 2.94398L0.942791 2.1775L1.7889 2.04809C11.8162 0.505181 66.067 0.783899 76.8441 0.856897L77.9092 0.860216L78.397 1.34466L85.5209 8.4686C86.1746 8.93977 86.3339 9.9186 86.4699 10.7481C86.5894 11.4748 86.7354 12.5299 86.9046 13.8904C87.1899 16.1599 87.5516 19.3188 87.9763 23.2806C88.6997 30.0163 89.3699 36.8449 89.3766 36.9113L89.4164 37.3095L89.2704 37.6811C89.1808 37.91 80.1456 60.9575 71.1835 83.7096C65.921 97.0716 61.7136 107.719 58.6776 115.358C56.8759 119.893 55.469 123.407 54.5034 125.796C53.9891 127.064 53.5843 128.059 53.299 128.736C52.7614 130.017 52.4363 130.79 51.3015 130.79ZM15.3267 120.046C20.6688 124.303 44.1377 126.888 50.2662 127.392C53.7369 119.097 76.7546 60.5095 86.0319 36.8449C85.1294 27.6737 83.613 13.2732 83.1021 10.7448L76.5322 4.17499C65.5394 4.10531 15.5557 3.85645 3.43136 5.18369C2.9801 9.96838 3.95561 29.6214 5.18331 34.2203L11.7166 40.7536L42.7872 40.2327L8.87966 113.596L15.3267 120.046Z" fill="black"/>
<path d="M43.9751 123.464C43.6931 123.464 12.9012 121.035 5.83366 115.235L4.84155 114.422L41.0253 36.1316L2.5222 36.7753L2.1373 35.6206C1.27128 33.0226 0.610982 25.0923 0.279172 18.5358C-0.0360463 12.3044 -0.241769 4.5434 0.557891 2.9474L0.942791 2.18091L1.7889 2.05151C11.8162 0.508597 66.067 0.787317 76.8441 0.860316L77.2224 0.863633C78.7222 0.863633 78.9544 2.28378 79.1403 3.4252C79.2597 4.15186 79.4057 5.20701 79.5749 6.56743C79.8603 8.83701 80.222 11.9958 80.6467 15.9576C81.37 22.6967 82.0403 29.5187 82.0469 29.5884L82.0867 29.9865L81.9407 30.3581C81.8511 30.5871 72.816 53.6346 63.8538 76.3867C58.5913 89.7487 54.384 100.396 51.3479 108.035C49.5462 112.571 48.1393 116.084 47.1738 118.473C46.6595 119.741 46.2546 120.736 45.9693 121.413C45.4351 122.691 45.1099 123.464 43.9751 123.464ZM8.98253 113.373C15.7514 117.242 37.1299 119.585 42.9399 120.066C46.4106 111.771 69.4282 53.1833 78.7056 29.5187C77.8694 21.031 76.509 8.05725 75.9051 4.17177C63.7675 4.09545 15.3367 3.87978 3.43136 5.18379C3.00332 9.72626 3.85939 27.6838 5.00082 33.4174L46.258 32.7273L8.98253 113.373Z" fill="black"/>
</svg>
