<svg width="101" height="131" viewBox="0 0 101 131" fill="none" xmlns="http://www.w3.org/2000/svg">
<path d="M55.5903 130.79C35.903 130.79 21.5746 125.248 14.1239 114.759C5.35078 108.451 0.905273 99.0526 0.905273 86.8193C0.905273 75.8266 7.15451 65.6818 17.7249 59.3344C17.403 58.9327 17.0908 58.5234 16.7886 58.1068C12.8243 55.2129 4.19848 47.4448 4.19848 34.7368C4.19848 23.8325 8.53596 14.9218 16.7428 8.97704C24.128 3.62475 34.3775 0.796387 46.3817 0.796387C63.4697 0.796387 76.695 6.2567 83.6677 16.1789C92.0349 22.1695 96.4542 31.1948 96.4542 42.2954C96.4542 51.6382 92.2772 60.0775 85.1833 65.2628C85.8839 66.0452 86.5484 66.8538 87.1671 67.682C95.901 74.2062 100.906 83.9811 100.906 94.5449C100.906 105.832 96.2447 115.224 87.4224 121.699C79.4382 127.559 68.1346 130.79 55.5903 130.79ZM46.385 4.06341C22.0198 4.06341 7.47533 15.5275 7.47533 34.7335C7.47533 46.1681 15.4792 53.1375 18.9197 55.6025L19.1423 55.7629L19.3027 55.9855C19.9542 56.9021 20.6809 57.8056 21.4666 58.6731L22.8775 60.2248L21.0312 61.2167C17.0767 63.3412 4.17884 71.4629 4.17884 86.816C4.17884 98.0345 8.23807 106.592 16.2485 112.248L16.4842 112.415L16.6479 112.651C23.4111 122.373 36.8753 127.513 55.5903 127.513C81.1306 127.513 97.6327 114.569 97.6327 94.5383C97.6327 81.4048 89.7336 73.63 85.0262 70.1633L84.8265 70.016L84.6792 69.813C83.7364 68.5298 82.6725 67.2924 81.5137 66.1401L80.0504 64.6801L81.805 63.59C88.9283 59.1576 93.1839 51.1963 93.1839 42.2889C93.1839 32.0492 89.2687 24.1075 81.5497 18.6799L81.3074 18.5097L81.1405 18.2674C74.8421 9.10798 62.5008 4.06341 46.385 4.06341Z" fill="black"/>
<path d="M48.3622 123.559C17.7576 123.559 0.905273 110.51 0.905273 86.8162C0.905273 80.1054 3.06583 73.9216 7.32802 68.4416C10.1531 64.808 13.9341 61.5475 18.1668 59.0596C11.2432 54.5159 4.20176 46.0275 4.20176 34.7304C4.20176 23.8262 8.53924 14.9155 16.7461 8.97069C24.1313 3.6184 34.3808 0.790039 46.385 0.790039C58.7722 0.790039 69.2672 3.67733 76.731 9.14092C84.9051 15.125 89.2262 24.088 89.2262 35.061C89.2262 44.7639 84.6792 53.5207 77.186 58.5784C85.5663 63.708 93.675 73.4993 93.675 87.3072C93.675 98.5945 89.0134 107.986 80.1911 114.461C72.2102 120.331 60.9033 123.559 48.3622 123.559ZM46.385 4.06361C22.0198 4.06361 7.47533 15.5277 7.47533 34.7337C7.47533 45.9784 15.4366 54.1198 22.2555 57.6749L25.1231 59.1709L22.2195 60.5949C17.9868 62.6736 4.18211 70.7037 4.18211 86.8162C4.18211 98.0707 8.26753 106.644 16.3205 112.301C23.8661 117.598 34.646 120.285 48.3655 120.285C73.9059 120.285 90.4079 107.341 90.4079 87.3105C90.4079 73.5942 81.5104 64.258 73.1824 60.094L70.318 58.6602L73.1595 57.1773C79.3465 53.9495 85.9592 46.4432 85.9592 35.0578C85.9526 15.652 71.1626 4.06361 46.385 4.06361Z" fill="black"/>
<path d="M60.3525 38.0117C60.3525 43.9774 54.7099 49.1602 47.2905 49.1602C39.8712 49.1602 34.2285 43.9774 34.2285 38.0117C34.2285 32.0461 39.8712 26.8633 47.2905 26.8633C54.7099 26.8633 60.3525 32.0461 60.3525 38.0117Z" stroke="black" stroke-width="3"/>
<path d="M60.3525 38.9333C60.3525 44.64 55.9273 49.1602 50.5967 49.1602C45.266 49.1602 40.8408 44.64 40.8408 38.9333C40.8408 33.2267 45.266 28.7065 50.5967 28.7065C55.9273 28.7065 60.3525 33.2267 60.3525 38.9333Z" stroke="black" stroke-width="3"/>
<path d="M60.3525 86.0295C60.3525 91.7362 55.9273 96.2563 50.5967 96.2563C45.266 96.2563 40.8408 91.7362 40.8408 86.0295C40.8408 80.3229 45.266 75.8027 50.5967 75.8027C55.9273 75.8027 60.3525 80.3229 60.3525 86.0295Z" stroke="black" stroke-width="3"/>
<path d="M60.3525 85.6562C60.3525 91.4287 54.7453 96.5098 47.2905 96.5098C39.8358 96.5098 34.2285 91.4287 34.2285 85.6562C34.2285 79.8838 39.8358 74.8027 47.2905 74.8027C54.7453 74.8027 60.3525 79.8838 60.3525 85.6562Z" stroke="black" stroke-width="3"/>
</svg>
