<svg width="88" height="87" viewBox="0 0 88 87" fill="none" xmlns="http://www.w3.org/2000/svg">
<path d="M28.4617 38.6168H35.0389C36.752 38.6168 38.1455 37.2232 38.1455 35.5101V33.2224C38.1455 31.5095 36.752 30.1159 35.0389 30.1159H28.4617C26.7488 30.1159 25.3553 31.5095 25.3553 33.2224V35.5101C25.3551 37.2232 26.7488 38.6168 28.4617 38.6168ZM28.0489 33.2224C28.0489 32.9986 28.2378 32.8097 28.4616 32.8097H35.0387C35.2624 32.8097 35.4515 32.9986 35.4515 33.2224V35.5101C35.4515 35.7339 35.2624 35.9229 35.0387 35.9229H28.4616C28.2378 35.9229 28.0489 35.7339 28.0489 35.5101V33.2224ZM20.587 54.7962H14.0099C12.297 54.7962 10.9034 56.1897 10.9034 57.9028V60.1905C10.9034 61.9036 12.297 63.2972 14.0099 63.2972H20.587C22.3 63.2972 23.6935 61.9036 23.6935 60.1905V57.9028C23.6935 56.1897 22.3 54.7962 20.587 54.7962ZM20.9997 60.1905C20.9997 60.4143 20.8108 60.6034 20.587 60.6034H14.0099C13.7862 60.6034 13.5973 60.4143 13.5973 60.1905V57.9028C13.5973 57.6791 13.7862 57.49 14.0099 57.49H20.587C20.8108 57.49 20.9997 57.6791 20.9997 57.9028V60.1905ZM20.587 42.456H14.0099C12.297 42.456 10.9034 43.8495 10.9034 45.5626V47.8503C10.9034 49.5634 12.297 50.957 14.0099 50.957H20.587C22.3 50.957 23.6935 49.5634 23.6935 47.8503V45.5626C23.6935 43.8495 22.3 42.456 20.587 42.456ZM20.9997 47.8503C20.9997 48.0741 20.8108 48.2632 20.587 48.2632H14.0099C13.7862 48.2632 13.5973 48.0741 13.5973 47.8503V45.5626C13.5973 45.3388 13.7862 45.1498 14.0099 45.1498H20.587C20.8108 45.1498 20.9997 45.3388 20.9997 45.5626V47.8503ZM38.1455 57.9028C38.1455 56.1897 36.752 54.7962 35.0389 54.7962H28.4617C26.7488 54.7962 25.3553 56.1897 25.3553 57.9028V60.1905C25.3553 61.9036 26.7488 63.2972 28.4617 63.2972H35.0389C36.752 63.2972 38.1455 61.9036 38.1455 60.1905V57.9028ZM35.4517 60.1905C35.4517 60.4143 35.2626 60.6034 35.0389 60.6034H28.4617C28.238 60.6034 28.0491 60.4143 28.0491 60.1905V57.9028C28.0491 57.6791 28.238 57.49 28.4617 57.49H35.0389C35.2626 57.49 35.4517 57.6791 35.4517 57.9028V60.1905ZM20.587 30.1159H14.0099C12.297 30.1159 10.9034 31.5095 10.9034 33.2224V35.5101C10.9034 37.2232 12.297 38.6168 14.0099 38.6168H20.587C22.3 38.6168 23.6935 37.2232 23.6935 35.5101V33.2224C23.6935 31.5095 22.3 30.1159 20.587 30.1159ZM20.9997 35.5101C20.9997 35.7339 20.8108 35.9229 20.587 35.9229H14.0099C13.7862 35.9229 13.5973 35.7339 13.5973 35.5101V33.2224C13.5973 32.9986 13.7862 32.8097 14.0099 32.8097H20.587C20.8108 32.8097 20.9997 32.9986 20.9997 33.2224V35.5101ZM28.4617 50.957H35.0389C36.752 50.957 38.1455 49.5634 38.1455 47.8503V45.5626C38.1455 43.8495 36.752 42.456 35.0389 42.456H28.4617C26.7488 42.456 25.3553 43.8495 25.3553 45.5626V47.8503C25.3551 49.5634 26.7488 50.957 28.4617 50.957ZM28.0489 45.5626C28.0489 45.3388 28.2378 45.1498 28.4616 45.1498H35.0387C35.2624 45.1498 35.4515 45.3388 35.4515 45.5626V47.8503C35.4515 48.0741 35.2624 48.2632 35.0387 48.2632H28.4616C28.2378 48.2632 28.0489 48.0741 28.0489 47.8503V45.5626ZM83.9771 53.735C81.5183 49.418 77.769 44.5386 72.2561 38.492C73.7857 37.693 74.8328 36.092 74.8328 34.2501C74.8328 31.7957 72.974 29.7679 70.5907 29.498L73.9494 26.1392C75.8515 24.2368 75.8515 21.1418 73.9492 19.2396C72.3391 17.6299 69.779 17.355 67.862 18.5854C67.7174 18.6786 67.5884 18.6903 67.4292 18.6239C67.2706 18.5583 67.187 18.4584 67.1503 18.2906C66.6843 16.1557 64.8207 14.5866 62.6609 14.461V9.32318C62.6608 4.35949 58.6226 0.321289 53.659 0.321289H9.84157C4.87788 0.321289 0.839844 4.35949 0.839844 9.32318V65.2827C0.839844 70.2462 4.87788 74.2844 9.84157 74.2844H40.167C40.2942 74.5199 40.4259 74.753 40.562 74.9835C44.7977 82.1307 52.9578 86.5238 61.9407 86.5234H62.8256C71.8079 86.5234 79.9689 82.1302 84.2042 74.9835C88.0523 68.49 87.9697 60.7451 83.9771 53.735ZM72.1388 34.2501C72.1388 35.4024 71.2013 36.3398 70.0491 36.3398H54.7172C53.5648 36.3398 52.6273 35.4024 52.6273 34.2499C52.6273 33.0976 53.5648 32.1604 54.7172 32.1604H70.0491C71.2013 32.1604 72.1388 33.098 72.1388 34.2501ZM64.5185 18.8655C64.7429 19.8922 65.428 20.7113 66.3979 21.1128C67.3684 21.5157 68.4326 21.4204 69.317 20.8526C70.1762 20.3015 71.3236 20.4239 72.0445 21.1448C72.4545 21.5548 72.6801 22.1032 72.6801 22.6896C72.6801 23.276 72.4543 23.8245 72.0443 24.2345L66.8124 29.4667H57.9542L52.7219 24.2345C52.3118 23.8245 52.0862 23.276 52.0862 22.6896C52.0862 22.1032 52.312 21.5548 52.7219 21.1448C53.4425 20.4237 54.5896 20.3007 55.4496 20.8526C56.334 21.4201 57.3977 21.5149 58.3682 21.1132C59.3388 20.7111 60.0238 19.8919 60.2479 18.8652C60.466 17.8673 61.364 17.143 62.3833 17.1428C63.4026 17.1427 64.3005 17.8671 64.5185 18.8655ZM49.4846 21.7351H12.3931C12.1694 21.7351 11.9803 21.546 11.9803 21.3223V14.4152C11.9803 14.1914 12.1694 14.0025 12.3931 14.0025H51.1073C51.3311 14.0025 51.5201 14.1914 51.5201 14.4152V18.6621C51.2679 18.832 51.0324 19.0255 50.8169 19.24C50.1338 19.9201 49.6698 20.7891 49.4846 21.7351ZM9.84157 71.5906C6.36335 71.5906 3.53366 68.7609 3.53366 65.2827V9.32318C3.53366 5.84496 6.36335 3.01511 9.84157 3.01511H53.659C57.1373 3.01511 59.9669 5.84496 59.9669 9.32318V15.0997C58.7993 15.7717 57.9168 16.9139 57.6163 18.2907C57.5794 18.4588 57.496 18.5586 57.3376 18.6241C57.1788 18.6904 57.0494 18.6783 56.9044 18.5855C56.0838 18.0589 55.1455 17.8102 54.2141 17.8217V14.4152C54.2141 12.7022 52.8206 11.3087 51.1075 11.3087H12.3931C10.68 11.3087 9.28648 12.7022 9.28648 14.4152V21.3221C9.28648 23.0352 10.68 24.4288 12.3931 24.4288H49.7099C49.9535 25.0709 50.3308 25.6539 50.8169 26.1392L54.1759 29.498C53.1127 29.6184 52.1544 30.0886 51.4184 30.7907C50.871 30.3536 50.1912 30.1156 49.4907 30.1157H42.9137C41.2006 30.1157 39.8071 31.5093 39.8071 33.2222V35.5099C39.8071 37.223 41.2006 38.6166 42.9137 38.6166H49.4907C50.2808 38.6166 51.0007 38.3177 51.5496 37.8302C51.8417 38.0889 52.1642 38.3111 52.5101 38.4918C51.2521 39.8716 50.0864 41.1904 49.0063 42.4558H42.9136C41.2005 42.4558 39.8069 43.8493 39.8069 45.5624V47.8503C39.8069 49.4289 40.9914 50.7335 42.5177 50.9289C41.8817 51.8927 41.3064 52.8265 40.789 53.735C37.4715 59.5597 36.8563 65.8908 38.9494 71.5906H9.84157ZM49.9035 33.2224V35.5101C49.9035 35.7339 49.7144 35.9229 49.4907 35.9229H42.9137C42.69 35.9229 42.5009 35.7339 42.5009 35.5101V33.2224C42.5009 32.9986 42.69 32.8097 42.9137 32.8097H49.4907C49.7144 32.8097 49.9035 32.9986 49.9035 33.2224ZM44.3771 48.2632H42.9137C42.69 48.2632 42.5009 48.0741 42.5009 47.8503V45.5626C42.5009 45.3388 42.69 45.1498 42.9137 45.1498H46.7726C45.9511 46.1697 45.1524 47.2077 44.3771 48.2632ZM81.8869 73.6101C78.1359 79.9397 70.8606 83.8296 62.8261 83.8296H61.9402C53.9064 83.8296 46.6302 79.9394 42.8794 73.6101C39.489 67.8893 39.5781 61.3044 43.1296 55.0681C45.6564 50.6319 49.6481 45.5272 55.671 39.0338H69.0948C75.1176 45.5272 79.1094 50.632 81.6362 55.0681C85.188 61.3043 85.277 67.8893 81.8869 73.6101ZM69.5874 65.6206C69.7667 67.098 69.37 68.4473 68.4403 69.5223C67.3823 70.7456 65.645 71.5748 63.6645 71.8319V73.1973C63.6645 73.5545 63.5226 73.8971 63.27 74.1497C63.0174 74.4023 62.6749 74.5442 62.3176 74.5442C61.9604 74.5442 61.6178 74.4023 61.3652 74.1497C61.1126 73.8971 60.9707 73.5545 60.9707 73.1973V71.8117C58.0104 71.3572 55.7178 69.4556 55.0452 66.7581C54.9588 66.4114 55.0136 66.0447 55.1976 65.7385C55.3816 65.4323 55.6796 65.2117 56.0262 65.1253C56.748 64.9463 57.479 65.3845 57.659 66.1063C58.2264 68.3824 60.4634 69.2002 62.3021 69.2221C62.3195 69.2214 62.337 69.2219 62.3543 69.2224C62.4141 69.2224 62.471 69.2222 62.5284 69.2205C64.1483 69.182 65.6689 68.6085 66.403 67.76C66.8342 67.2615 67.0012 66.668 66.9135 65.9454C66.7022 64.2057 65.2227 63.2022 62.1164 62.6922C56.9352 61.8417 55.7275 59.1935 55.627 57.1214C55.4876 54.252 57.4901 51.8486 60.6101 51.141C60.7288 51.1141 60.8492 51.0898 60.9709 51.0683V49.6628C60.9709 49.3055 61.1128 48.9629 61.3654 48.7104C61.618 48.4578 61.9606 48.3159 62.3178 48.3159C62.675 48.3159 63.0176 48.4578 63.2702 48.7104C63.5228 48.9629 63.6647 49.3055 63.6647 49.6628V51.0566C65.8376 51.4174 67.9615 52.7046 69.0343 55.2595C69.1726 55.5889 69.1744 55.9597 69.0393 56.2903C68.9042 56.621 68.6433 56.8845 68.3139 57.0228C67.9845 57.161 67.6138 57.1627 67.2831 57.0276C66.9525 56.8925 66.689 56.6316 66.5506 56.3023C65.7556 54.4093 64.0526 53.6397 62.4065 53.6353C62.3577 53.6385 62.3086 53.639 62.2597 53.6368C61.905 53.6457 61.5521 53.6897 61.2061 53.768C59.7503 54.0981 58.2269 55.1182 58.3178 56.9908C58.3493 57.6381 58.4328 59.3576 62.553 60.0338C64.1568 60.2973 69.0384 61.0989 69.5874 65.6206Z" fill="#1B2330"/>
</svg>
