<svg width="95" height="72" viewBox="0 0 95 72" fill="none" xmlns="http://www.w3.org/2000/svg">
<path fill-rule="evenodd" clip-rule="evenodd" d="M73.9737 25.0916C73.9737 23.7673 74.4998 22.4973 75.4362 21.5609C76.3726 20.6244 77.6427 20.0984 78.9669 20.0984H89.7856C91.1099 20.0984 92.38 20.6244 93.3164 21.5609C94.2528 22.4973 94.7788 23.7673 94.7788 25.0916V63.3731C94.7788 64.6973 94.2528 65.9674 93.3164 66.9038C92.38 67.8402 91.1099 68.3663 89.7856 68.3663H78.9669C77.6427 68.3663 76.3726 67.8402 75.4362 66.9038C74.4998 65.9674 73.9737 64.6973 73.9737 63.3731V25.0916ZM78.9669 23.4272C78.5255 23.4272 78.1022 23.6026 77.79 23.9147C77.4779 24.2268 77.3025 24.6502 77.3025 25.0916V63.3731C77.3025 63.8145 77.4779 64.2378 77.79 64.55C78.1022 64.8621 78.5255 65.0375 78.9669 65.0375H89.7856C90.227 65.0375 90.6504 64.8621 90.9625 64.55C91.2747 64.2378 91.45 63.8145 91.45 63.3731V25.0916C91.45 24.6502 91.2747 24.2268 90.9625 23.9147C90.6504 23.6026 90.227 23.4272 89.7856 23.4272H78.9669ZM18.6462 61.1935L20.8316 58.7959L17.6434 57.9621C16.6564 57.7038 15.742 57.2222 14.9708 56.5544C14.1995 55.8866 13.592 55.0505 13.1953 54.1106L11.9744 51.2179L10.0345 53.3466L1.42704 70.2512C1.04339 71.0052 1.8989 71.7842 2.61376 71.3323L18.6462 61.1935ZM14.1814 60.0784C13.1656 59.4672 12.2667 58.6801 11.5267 57.754L8.51909 63.6593L14.1814 60.0784ZM31.5104 42.1327L62.2712 8.3726C62.4982 8.13134 62.6748 7.84734 62.7909 7.53713C62.907 7.22693 62.9602 6.89673 62.9474 6.56576C62.9346 6.23479 62.8561 5.90967 62.7165 5.60934C62.5768 5.30902 62.3788 5.03948 62.1339 4.81643C61.8891 4.59339 61.6023 4.42129 61.2903 4.31017C60.9783 4.19905 60.6472 4.15112 60.3165 4.16918C59.9858 4.18724 59.662 4.27093 59.3639 4.41537C59.0659 4.55981 58.7995 4.76211 58.5804 5.01049L24.8336 42.0461L31.5104 42.1327ZM32.9635 45.4806L64.7321 10.6137C65.2473 10.0482 65.6461 9.38678 65.9057 8.66715C66.1653 7.94752 66.2806 7.1838 66.2451 6.41961C66.2095 5.65541 66.0238 4.9057 65.6985 4.21328C65.3732 3.52086 64.9148 2.89929 64.3493 2.38405C63.7837 1.86882 63.1223 1.47002 62.4027 1.21041C61.683 0.950811 60.9193 0.835491 60.1551 0.871039C59.3909 0.906586 58.6412 1.09231 57.9488 1.41759C57.2564 1.74288 56.6348 2.20136 56.1196 2.76687L17.3837 45.2809L32.9635 45.4806Z" fill="#1B2330"/>
<path fill-rule="evenodd" clip-rule="evenodd" d="M38.2436 12.2596C38.0212 12.1941 37.7876 12.1759 37.5577 12.206C37.3279 12.2361 37.1068 12.3139 36.9088 12.4343C33.7031 14.3859 28.749 17.5008 24.2967 20.5084C22.0722 22.0114 19.9567 23.4977 18.2424 24.8059C16.5822 26.0725 15.1408 27.2867 14.4059 28.2304C12.8589 30.2202 9.66819 35.657 6.78543 40.7019C5.23253 43.4199 3.7562 46.0471 2.61775 48.0719C1.59996 49.8836 0.851805 51.2143 0.562198 51.6978C-0.65199 53.7201 0.24596 56.4239 2.65353 57.9618C4.30629 59.0179 6.68806 59.6062 9.89538 59.4556C10.2299 59.439 10.4555 58.9064 10.6876 58.3554C10.9273 57.787 11.1753 57.1995 11.5598 57.1487C11.8727 57.1063 12.3054 57.549 12.7498 58.0034C13.225 58.4894 13.7127 58.9887 14.0772 58.9155C16.2917 60.4243 18.7467 60.6024 19.9859 60.4601H20.2513C20.2763 61.0093 20.3454 61.6451 20.4968 62.2951C20.7165 63.2372 21.1418 64.3382 21.994 65.2186C22.8919 66.1474 24.1386 66.7016 25.7065 66.7016C28.3712 66.7016 30.0597 65.1621 31.0717 63.6125C32.0853 64.9989 33.7114 66.2497 36.248 66.6783C38.9194 67.1302 41.0365 66.1257 42.4121 65.0963C42.8582 64.7613 43.2759 64.3903 43.6613 63.987L43.8743 60.4493C41.659 59.4365 39.9164 58.3496 38.7929 57.48C38.5013 57.2541 38.1431 57.1314 37.7743 57.1313H19.8818C19.802 57.1313 19.7237 57.1371 19.6455 57.1479C19.0372 57.2353 17.2304 57.1479 15.7175 55.9953C15.1782 55.1656 14.0115 53.2157 13.8966 51.31C13.8384 50.3471 14.0564 49.4941 14.713 48.7668C15.3888 48.0178 16.6995 47.2139 19.2053 46.7287H39.8539C40.0895 46.7287 40.3225 46.6788 40.5364 46.5822C42.2124 45.8283 44.4028 44.1688 45.711 41.5557C47.0592 38.8652 47.3871 35.33 45.5412 31.0857C45.4556 30.883 45.3306 30.6993 45.1735 30.5453C45.0165 30.3912 44.8304 30.2698 44.6261 30.188C44.4218 30.1063 44.2033 30.066 43.9833 30.0692C43.7633 30.0725 43.5461 30.1194 43.3443 30.2071C43.1425 30.2948 42.9601 30.4217 42.8077 30.5804C42.6553 30.7391 42.5358 30.9264 42.4562 31.1316C42.3767 31.3367 42.3386 31.5556 42.3441 31.7756C42.3497 31.9956 42.3989 32.2122 42.4887 32.4131C43.9717 35.8243 43.6072 38.3234 42.735 40.0644C41.9045 41.7221 40.5388 42.8406 39.472 43.3999H19.0496C18.9473 43.3999 18.8457 43.409 18.7459 43.4273C15.7308 43.9857 13.5945 45.0377 12.2414 46.5373C10.8566 48.0719 10.4754 49.8719 10.5736 51.5097C10.6727 53.1525 11.2594 54.722 11.8486 55.9246C7.85398 56.4988 5.58123 55.8821 4.44527 55.1564C3.10791 54.3018 3.38171 53.4679 3.41666 53.4105C3.72042 52.9028 4.51184 51.4964 5.57124 49.6115C6.71719 47.5726 8.17771 44.9752 9.67568 42.353C12.6184 37.2033 15.6692 32.0295 17.034 30.2743C17.4651 29.7201 18.5653 28.7464 20.2613 27.4523C21.9041 26.199 23.9605 24.7526 26.16 23.2663C30.2794 20.4843 34.8457 17.6007 38.0164 15.6591C39.1765 15.987 40.6828 16.3857 42.0818 16.6977C42.9323 16.8883 43.7728 17.0531 44.4843 17.1488C44.8389 17.1962 45.1917 17.2303 45.5121 17.2378C45.7243 17.242 46.0231 17.2387 46.3335 17.1762L47.3696 13.9098C46.9108 13.8502 46.4475 13.8335 45.9856 13.8599C45.8828 13.8671 45.7808 13.8838 45.681 13.9098H45.5845C45.3644 13.9012 45.145 13.881 44.9271 13.8491C44.2154 13.7449 43.5082 13.6117 42.8074 13.4496C41.2744 13.0996 39.7524 12.7027 38.2436 12.2596ZM23.7383 61.5378C23.6582 61.1833 23.607 60.8229 23.5852 60.4601H28.9529C28.863 60.6939 28.759 60.9344 28.64 61.1725C27.9775 62.4965 27.0671 63.3728 25.7073 63.3728C24.9866 63.3728 24.6213 63.1465 24.3882 62.9051C24.1086 62.6163 23.8839 62.1561 23.7391 61.5386L23.7383 61.5378ZM33.3003 60.8687C33.2378 60.7349 33.1809 60.5986 33.1297 60.4601H37.2192C38.2359 61.1903 39.3002 61.852 40.4049 62.4407C39.4928 63.1198 38.2852 63.6466 36.8022 63.3961C34.7317 63.0466 33.7888 61.9131 33.3003 60.8687Z" fill="#1B2330"/>
<path d="M58.5985 18.4071C63.1108 20.8621 67.7195 23.8273 70.7554 25.9236H75.6438C76.0852 25.9236 76.5086 26.0989 76.8207 26.4111C77.1328 26.7232 77.3082 27.1466 77.3082 27.588C77.3082 28.0294 77.1328 28.4528 76.8207 28.7649C76.5086 29.077 76.0852 29.2524 75.6438 29.2524H70.2344C69.8936 29.2524 69.561 29.1479 69.2816 28.9528C66.3356 26.8973 61.6045 23.8331 57.0074 21.3315C56.1539 20.8659 55.2921 20.4156 54.4225 19.9808L56.2559 17.1763C57.0315 17.5674 57.8154 17.981 58.5985 18.4079V18.4071ZM43.8785 60.4484C49.3544 62.9501 57.4293 64.8675 65.882 62.2344C66.4071 61.9972 67.0346 61.8466 67.6255 61.74C68.3021 61.6177 69.0735 61.5287 69.8699 61.4637C71.4661 61.3339 73.262 61.2923 74.8116 61.2923C75.253 61.2923 75.6763 61.4677 75.9885 61.7798C76.3006 62.0919 76.476 62.5153 76.476 62.9567C76.476 63.3981 76.3006 63.8215 75.9885 64.1336C75.6763 64.4458 75.253 64.6211 74.8116 64.6211C73.3086 64.6211 71.6101 64.6627 70.1404 64.7817C69.4039 64.8417 68.7506 64.9199 68.218 65.0156C67.6538 65.118 67.3483 65.2203 67.2335 65.2777C67.1552 65.3168 67.0739 65.3496 66.9905 65.3759C58.0659 68.1938 49.6057 66.4586 43.6654 63.987L41.9395 61.2923L43.8785 60.4484Z" fill="#1B2330"/>
</svg>
