<svg width="76" height="76" viewBox="0 0 76 76" fill="none" xmlns="http://www.w3.org/2000/svg">
<path d="M52.8297 75.6473C53.6539 75.6451 54.4547 75.3726 55.1093 74.8716C55.7638 74.3706 56.2359 73.6688 56.4533 72.8737L59.9087 59.9726L72.9951 56.4743C74.9892 55.932 76.1697 53.8808 75.6383 51.8844L68.8532 26.5953L69.3903 24.5962C69.876 22.755 68.9035 20.8422 67.1298 20.149L64.0747 8.74418C63.5278 6.75195 61.4817 5.5695 59.4826 6.09007L37.1652 12.0767L18.4514 7.05975C17.6845 6.84926 16.87 6.89319 16.1301 7.18496L11.4552 2.51797C10.6812 1.73662 9.71452 1.17348 8.65303 0.88547C7.59155 0.597463 6.47284 0.594796 5.40999 0.877739C4.34714 1.16068 3.37783 1.71921 2.60004 2.49686C1.82224 3.2745 1.26353 4.24371 0.980389 5.3065C0.697066 6.36917 0.6993 7.48781 0.986865 8.54933C1.27443 9.61086 1.83714 10.5777 2.6181 11.352L11.1392 19.8731L0.930309 57.9849C0.395972 59.9836 1.57784 62.0376 3.57402 62.581L51.8566 75.5175C52.1735 75.6039 52.5006 75.6479 52.8297 75.6473ZM73.2206 52.5302C73.3055 52.8488 73.2612 53.188 73.0973 53.474C72.9334 53.7601 72.6631 53.9698 72.3453 54.0575L60.657 57.1813L67.5559 31.4265L73.2206 52.5302ZM60.1221 8.50696C60.2815 8.46337 60.4479 8.45185 60.6118 8.47306C60.7757 8.49428 60.9338 8.54781 61.0768 8.63055C61.2198 8.7131 61.345 8.82321 61.4451 8.9545C61.5453 9.08578 61.6184 9.23564 61.6602 9.39537L64.3257 19.3523L41.9924 13.369L60.1221 8.50696ZM38.6295 38.5338L32.3209 36.431L36.5267 32.221L38.6295 38.5292V38.5338ZM33.5439 31.6766L22.9411 21.0727C22.825 20.9567 22.6872 20.8647 22.5355 20.8019C22.3839 20.7391 22.2213 20.7068 22.0572 20.7069C21.8931 20.7069 21.7306 20.7393 21.579 20.8022C21.4273 20.8651 21.2896 20.9572 21.1736 21.0733C20.6857 21.5612 20.6863 22.3529 21.1748 22.8408L31.778 33.4418L30.0116 35.2105L12.339 17.5375L14.1058 15.7707L17.6393 19.3056C17.9556 19.6214 18.4154 19.7449 18.8474 19.6288C19.0593 19.5719 19.2525 19.4603 19.4076 19.3052C19.5627 19.15 19.6743 18.9568 19.7311 18.7449C19.7879 18.533 19.7879 18.3099 19.7312 18.0979C19.6745 17.886 19.563 17.6927 19.4079 17.5375L15.8739 14.0036L17.6409 12.2356L35.3108 29.9084L33.5439 31.6766ZM8.80376 14.0038L14.1057 8.70186L15.8727 10.4689L10.5718 15.7708L8.80376 14.0038ZM3.28819 6.93499C3.28817 6.19345 3.50804 5.46855 3.91999 4.85195C4.33195 4.23536 4.91749 3.75477 5.60257 3.47096C6.2877 3.18728 7.04156 3.11314 7.76882 3.2579C8.49609 3.40267 9.16409 3.75984 9.68837 4.28425L12.3391 6.93499L7.03689 12.2369L4.38497 9.585C4.03607 9.23774 3.75949 8.82474 3.57123 8.3699C3.38297 7.91506 3.28677 7.42726 3.28819 6.93499ZM3.34603 58.641L13.1821 21.9159L29.1267 37.8605C29.2571 37.988 29.4142 38.085 29.5867 38.1443C29.5963 38.1443 29.6038 38.158 29.6152 38.1614L37.8464 40.9106C38.1033 40.9952 38.3727 41.0369 38.6433 41.0358C39.1138 41.0342 39.5742 40.8984 39.9703 40.6445L54.3403 44.5033C54.5121 44.5497 54.6919 44.5588 54.8675 44.53C55.0432 44.5012 55.2107 44.4352 55.3587 44.3364C55.5068 44.2376 55.632 44.1083 55.726 43.9571C55.8199 43.806 55.8805 43.6365 55.9036 43.46C55.9432 43.1594 55.872 42.8548 55.7035 42.6028C55.535 42.3508 55.2806 42.1688 54.9878 42.0905L41.1177 38.3667C41.1053 38.1544 41.0667 37.9443 41.0028 37.7414L38.2536 29.51C38.2536 29.4985 38.24 29.4911 38.2349 29.4796C38.1752 29.3085 38.0788 29.1525 37.9523 29.0226L18.6391 9.70127L66.0864 22.4107C66.2453 22.4531 66.3941 22.5264 66.5246 22.6264C66.655 22.7264 66.7645 22.8511 66.8466 22.9935C67.0124 23.2809 67.0573 23.6225 66.9714 23.943L54.0405 72.2199C53.9983 72.3788 53.925 72.5278 53.825 72.6584C53.725 72.7889 53.6002 72.8984 53.4577 72.9806C53.3153 73.0627 53.158 73.116 52.995 73.1373C52.8319 73.1586 52.6663 73.1475 52.5075 73.1048L4.23019 60.1727C3.90971 60.0869 3.63632 59.8775 3.46991 59.5905C3.38782 59.4482 3.33462 59.2911 3.31334 59.1281C3.29205 58.9652 3.30326 58.7997 3.34603 58.641Z" fill="#1B2330"/>
<path d="M58.5522 30.0584C58.8554 30.058 59.1481 29.9476 59.3759 29.7476C59.6037 29.5475 59.7511 29.2715 59.7906 28.971C59.8298 28.6705 59.7586 28.366 59.5901 28.1141C59.4217 27.8623 59.1675 27.6801 58.8748 27.6017L41.1021 22.8396C40.8882 22.7759 40.6611 22.7706 40.4445 22.8244C40.2279 22.8783 40.0297 22.9892 39.8705 23.1457C39.7112 23.302 39.5967 23.498 39.5389 23.7136C39.481 23.9291 39.482 24.1561 39.5416 24.3712C39.6012 24.5862 39.7173 24.7813 39.8778 24.9363C40.0384 25.0913 40.2375 25.2004 40.4545 25.2524L58.2286 30.0155C58.3341 30.044 58.4429 30.0584 58.5522 30.0584ZM56.6102 37.2994C56.9133 37.2991 57.206 37.1888 57.4337 36.9888C57.6615 36.7888 57.8088 36.5129 57.8483 36.2124C57.8877 35.9119 57.8167 35.6073 57.6482 35.3553C57.4798 35.1033 57.2256 34.9211 56.9328 34.8427L44.8492 31.6103C44.636 31.5495 44.4105 31.5465 44.1958 31.6017C43.981 31.6568 43.7849 31.7682 43.6274 31.9242C43.4699 32.0802 43.3567 32.2753 43.2995 32.4895C43.2423 32.7037 43.2431 32.9292 43.3019 33.143C43.3606 33.3567 43.4752 33.551 43.6339 33.7059C43.7925 33.8607 43.9895 33.9705 44.2046 34.0241L56.2884 37.2571C56.3929 37.2852 56.5016 37.2995 56.6102 37.2995V37.2994ZM18.0524 39.9484L14.4288 38.9777C14.2695 38.9323 14.1028 38.9191 13.9383 38.9387C13.7739 38.9584 13.615 39.0105 13.4709 39.0921C13.3267 39.1738 13.2003 39.2832 13.0989 39.4142C12.9975 39.5451 12.9231 39.6949 12.8801 39.8549C12.8371 40.0148 12.8263 40.1817 12.8484 40.3459C12.8705 40.51 12.925 40.6681 13.0087 40.811C13.0925 40.9539 13.2038 41.0787 13.3362 41.1782C13.4687 41.2777 13.6195 41.3498 13.7801 41.3904L17.4037 42.3628C17.5098 42.3909 17.619 42.4051 17.7287 42.4052C18.032 42.4055 18.325 42.2954 18.553 42.0956C18.7811 41.8957 18.9287 41.6197 18.9682 41.319C19.0078 41.0183 18.9367 40.7135 18.7682 40.4614C18.5997 40.2093 18.3453 40.0269 18.0524 39.9484ZM53.9374 50.8561C54.1157 50.1896 53.7199 49.5055 53.0541 49.3264L25.2923 41.8892C24.9821 41.8294 24.6608 41.8893 24.393 42.0569C24.1252 42.2245 23.9308 42.4873 23.849 42.7924C23.7671 43.0975 23.8039 43.4223 23.9519 43.7014C24.0998 43.9805 24.348 44.1932 24.6465 44.2967L52.4065 51.7345C52.5124 51.7638 52.6211 51.778 52.7303 51.778C53.0049 51.7784 53.2719 51.6882 53.4901 51.5216C53.7083 51.3549 53.8655 51.121 53.9374 50.8561ZM16.1104 47.19L12.4868 46.2188C12.1673 46.135 11.8276 46.1811 11.542 46.347C11.2563 46.5129 11.048 46.7851 10.9624 47.1041C10.877 47.4234 10.9215 47.7635 11.0861 48.05C11.2508 48.3366 11.5222 48.5463 11.841 48.6332L15.4647 49.6026C15.57 49.6319 15.6786 49.6468 15.7884 49.6462C16.0916 49.6463 16.3844 49.5362 16.6123 49.3363C16.8403 49.1365 16.9877 48.8605 17.0273 48.56C17.0671 48.2594 16.9962 47.9545 16.8276 47.7024C16.6591 47.4503 16.4046 47.2681 16.1116 47.19H16.1104ZM51.1132 56.5692L23.3532 49.1303C23.1393 49.0669 22.9123 49.0618 22.6958 49.1156C22.4792 49.1694 22.281 49.2802 22.1217 49.4364C21.9625 49.5928 21.848 49.7889 21.7902 50.0044C21.7324 50.2199 21.7333 50.447 21.7928 50.662C21.8526 50.877 21.9687 51.0721 22.1292 51.2271C22.2897 51.3821 22.4887 51.4914 22.7057 51.5436L50.4663 58.982C50.5722 59.0111 50.6816 59.0259 50.7914 59.0259C51.0944 59.0256 51.387 58.9151 51.6147 58.7151C51.8424 58.5151 51.9896 58.2392 52.029 57.9387C52.0684 57.6382 51.9973 57.3337 51.8289 57.0817C51.6605 56.8298 51.4062 56.6476 51.1135 56.5692H51.1132Z" fill="#1B2330"/>
</svg>
