<svg width="87" height="87" viewBox="0 0 87 87" fill="none" xmlns="http://www.w3.org/2000/svg">
<path d="M9.43823 46.7887H3.25312C1.65243 46.7887 0.349609 48.0903 0.349609 49.6908V83.8018C0.349609 85.4025 1.65243 86.7053 3.25312 86.7053H9.43823C11.0389 86.7053 12.3404 85.4025 12.3404 83.8018V49.6908C12.3404 48.0901 11.0387 46.7887 9.43823 46.7887ZM9.64231 83.8018C9.64231 83.9151 9.55006 84.0072 9.43806 84.0072H3.25312C3.13974 84.0072 3.04766 83.915 3.04766 83.8018V49.6908C3.04766 49.5788 3.13991 49.4865 3.25312 49.4865H9.43823C9.55023 49.4865 9.64248 49.5788 9.64248 49.6908L9.64231 83.8018ZM28.0238 57.0867H21.8387C20.238 57.0867 18.9352 58.3895 18.9352 59.9902V83.8019C18.9352 85.4026 20.238 86.7054 21.8387 86.7054H28.0238C29.6245 86.7054 30.9273 85.4026 30.9273 83.8019V59.9902C30.9273 58.3895 29.6245 57.0867 28.0238 57.0867ZM28.2294 83.8018C28.2294 83.9151 28.1372 84.0072 28.024 84.0072H21.8389C21.7255 84.0072 21.6334 83.915 21.6334 83.8018V59.9902C21.6334 59.8768 21.7256 59.7847 21.8389 59.7847H28.024C28.1373 59.7847 28.2294 59.877 28.2294 59.9902V83.8018ZM46.6095 46.7887H40.4258C38.8251 46.7887 37.5223 48.0903 37.5223 49.6908V83.8018C37.5223 85.4025 38.8251 86.7053 40.4258 86.7053H46.6095C48.2102 86.7053 49.513 85.4025 49.513 83.8018V49.6908C49.513 48.0901 48.2101 46.7887 46.6095 46.7887ZM46.815 83.8018C46.815 83.9151 46.7227 84.0072 46.6095 84.0072H40.4258C40.3124 84.0072 40.2203 83.915 40.2203 83.8018V49.6908C40.2203 49.5788 40.3126 49.4865 40.4258 49.4865H46.6095C46.7229 49.4865 46.815 49.5788 46.815 49.6908V83.8018ZM65.1965 52.5325H59.0114C57.4107 52.5325 56.1079 53.8341 56.1079 55.4346V83.8018C56.1079 85.4025 57.4107 86.7053 59.0114 86.7053H65.1965C66.7972 86.7053 68.1 85.4025 68.1 83.8018V55.4346C68.1 53.8339 66.797 52.5325 65.1965 52.5325ZM65.4019 83.8018C65.4019 83.9151 65.3097 84.0072 65.1965 84.0072H59.0114C58.898 84.0072 58.8059 83.915 58.8059 83.8018V55.4346C58.8059 55.3226 58.8982 55.2303 59.0114 55.2303H65.1965C65.3099 55.2303 65.4019 55.3226 65.4019 55.4346V83.8018ZM83.782 36.8477H77.5969C75.9962 36.8477 74.6948 38.1493 74.6948 39.7498V83.8018C74.6948 85.4025 75.9964 86.7053 77.5969 86.7053H83.782C85.3827 86.7053 86.6855 85.4025 86.6855 83.8018V39.7498C86.6855 38.1493 85.3827 36.8477 83.782 36.8477ZM83.9877 83.8018C83.9877 83.9151 83.8954 84.0072 83.7822 84.0072H77.5971C77.5428 84.0069 77.4909 83.9851 77.4526 83.9466C77.4144 83.9081 77.3929 83.856 77.3929 83.8018V39.7498C77.3929 39.6378 77.4851 39.5455 77.5971 39.5455H83.7822C83.8956 39.5455 83.9877 39.6378 83.9877 39.7498V83.8018Z" fill="#1B2330"/>
<path d="M24.1336 50.7171C24.3649 50.8875 24.6447 50.9793 24.932 50.9793C25.2192 50.9793 25.499 50.8875 25.7303 50.7171L43.6849 37.5328L61.5552 45.4767C61.8248 45.5951 62.1256 45.6227 62.4122 45.5552C62.6988 45.4877 62.9556 45.3288 63.144 45.1025L79.3433 25.4897L79.3425 29.5641C79.3425 29.9219 79.4846 30.265 79.7376 30.518C79.9906 30.771 80.3337 30.9131 80.6915 30.9131C81.0493 30.9131 81.3924 30.771 81.6454 30.518C81.8984 30.265 82.0405 29.9219 82.0405 29.5641L82.0419 21.7427C82.0419 21.0219 81.3695 20.3099 80.54 20.4033L80.5374 20.403L72.7569 21.3067C72.581 21.3271 72.4107 21.3819 72.2559 21.468C72.1012 21.5542 71.9649 21.67 71.8549 21.8089C71.7449 21.9477 71.6634 22.1069 71.6149 22.2773C71.5665 22.4477 71.5521 22.626 71.5727 22.8019C71.6582 23.5423 72.3263 24.085 73.0679 23.9862L77.5111 23.4705L61.716 42.5957L44.0656 34.7491C43.8482 34.6526 43.6092 34.6153 43.3727 34.641C43.1363 34.6666 42.9108 34.7544 42.7192 34.8952L24.9319 47.9571L7.14339 34.8954C6.54009 34.4541 5.69697 34.5845 5.25823 35.1838C4.81691 35.7846 4.94592 36.6291 5.54665 37.069L24.1336 50.7171Z" fill="#1B2330"/>
<path d="M26.6626 32.8589C35.6288 32.8589 42.9231 25.5711 42.9231 16.6143C42.9231 7.65743 35.6288 0.369629 26.6626 0.369629C17.7058 0.369629 10.418 7.65743 10.418 16.6143C10.418 25.5711 17.7056 32.8589 26.6626 32.8589ZM26.6626 3.06751C34.1415 3.06751 40.225 9.14457 40.225 16.6141C40.225 24.0837 34.1413 30.1607 26.6626 30.1607C19.1931 30.1607 13.116 24.0837 13.116 16.6141C13.116 9.14457 19.1931 3.06751 26.6626 3.06751Z" fill="#1B2330"/>
<path d="M26.9196 21.1512H23.476C22.7303 21.1512 22.127 21.7545 22.127 22.5002C22.127 23.2459 22.7303 23.8492 23.476 23.8492H25.3242V24.5592C25.3242 25.3049 25.9275 25.9082 26.6732 25.9082C27.419 25.9082 28.0223 25.3049 28.0223 24.5592V23.6874C29.8521 23.197 31.2104 21.5396 31.2104 19.557C31.2104 17.191 29.2857 15.265 26.9198 15.265H26.4192C25.5405 15.265 24.8252 14.5496 24.8252 13.671C24.8252 12.7923 25.5405 12.0782 26.4192 12.0782H29.8616C30.6073 12.0782 31.2106 11.4749 31.2106 10.7292C31.2106 9.98344 30.6073 9.38013 29.8616 9.38013H28.0223V8.67032C28.0223 7.9246 27.419 7.32129 26.6732 7.32129C25.9275 7.32129 25.3242 7.9246 25.3242 8.67032V9.53955C23.4899 10.0271 22.127 11.687 22.127 13.6723C22.127 16.0383 24.053 17.963 26.419 17.963H26.9196C27.7983 17.963 28.5124 18.6783 28.5124 19.557C28.5124 20.4357 27.7983 21.1512 26.9196 21.1512Z" fill="#1B2330"/>
</svg>
