<svg width="71" height="69" viewBox="0 0 71 69" fill="none" xmlns="http://www.w3.org/2000/svg">
<path d="M60.6695 18.3125H10.5413C4.85015 18.3125 0.220703 22.942 0.220703 28.6329V58.1201C0.220703 63.8111 4.85015 68.4407 10.5413 68.4407H60.6697C66.3606 68.4407 70.9902 63.8113 70.9902 58.1201V28.6329C70.9901 22.942 66.3606 18.3125 60.6695 18.3125ZM68.0414 58.1203C68.0414 62.1836 64.7359 65.4921 60.6697 65.4921H10.5413C6.47495 65.4921 3.16952 62.1836 3.16952 58.1203V28.6329C3.16952 24.5696 6.47509 21.2612 10.5413 21.2612H60.6697C64.736 21.2612 68.0414 24.5696 68.0414 28.6329V58.1203Z" fill="#1B2330"/>
<path d="M57.72 38.9536C55.2813 38.9536 53.2969 40.9381 53.2969 43.3767C53.2969 45.8153 55.2813 47.7998 57.72 47.7998C60.1586 47.7998 62.143 45.8153 62.143 43.3767C62.143 40.9381 60.1586 38.9536 57.72 38.9536ZM57.72 44.8511C56.909 44.8511 56.2456 44.1905 56.2456 43.3767C56.2456 42.5629 56.909 41.9023 57.72 41.9023C58.5309 41.9023 59.1944 42.5629 59.1944 43.3767C59.1944 44.1905 58.5309 44.8511 57.72 44.8511Z" fill="#1B2330"/>
<path d="M69.5149 33.0561H57.7201C52.0291 33.0561 47.3995 37.6856 47.3995 43.3767C47.3995 49.0677 52.0289 53.6973 57.7201 53.6973H69.5149C70.3288 53.6973 70.9893 53.0367 70.9893 52.2229V34.5305C70.9893 33.7167 70.3288 33.0561 69.5149 33.0561ZM68.0406 50.7485H57.7201C53.6537 50.7485 50.3483 47.44 50.3483 43.3767C50.3483 39.3134 53.6539 36.0049 57.7201 36.0049H68.0406V50.7485ZM60.5125 19.1264L54.2701 6.64143C53.011 4.12317 50.8377 2.26852 48.1544 1.41928C45.4711 0.572954 42.6285 0.838339 40.1458 2.17121L9.84166 18.4895C9.12512 18.8728 8.85683 19.7693 9.24302 20.4858C9.62935 21.2024 10.5257 21.4707 11.2394 21.0845L41.5492 4.77198C43.3185 3.8166 45.356 3.62488 47.2668 4.23237C49.1835 4.83681 50.7345 6.16374 51.6339 7.96255L57.8764 20.4474C57.9989 20.692 58.1871 20.8977 58.4199 21.0414C58.6527 21.1852 58.9209 21.2613 59.1945 21.2613C59.4156 21.2613 59.6397 21.2111 59.852 21.1049C60.5803 20.7393 60.8752 19.8547 60.5125 19.1264Z" fill="#1B2330"/>
<path d="M54.5981 7.29583C54.2089 6.57638 53.3125 6.311 52.5989 6.69429L30.6929 18.4891C29.9763 18.8755 29.708 19.7689 30.0942 20.4855C30.3596 20.9809 30.8668 21.261 31.3917 21.261C31.6277 21.261 31.8694 21.2051 32.0935 21.087L53.9995 9.29216C54.716 8.90583 54.9845 8.01237 54.5981 7.29583ZM26.7592 9.46618H16.4386C7.4982 9.46618 0.220703 16.7406 0.220703 25.6841V28.6328C0.220703 29.4466 0.881263 30.1072 1.69511 30.1072C2.50896 30.1072 3.16952 29.4466 3.16952 28.6328V25.6841C3.16952 18.3683 9.123 12.4149 16.4388 12.4149H26.7592C27.5731 12.4149 28.2336 11.7543 28.2336 10.9404C28.2336 10.1266 27.5731 9.46618 26.7592 9.46618ZM54.7722 9.46618C53.9583 9.46618 53.2977 10.1267 53.2977 10.9406C53.2977 11.7544 53.9583 12.415 54.7722 12.415C62.0879 12.415 68.0414 18.3685 68.0414 25.6843V28.6329C68.0414 29.4468 68.702 30.1073 69.5158 30.1073C70.3297 30.1073 70.9902 29.4468 70.9902 28.6329V25.6843C70.9901 16.7406 63.7126 9.46618 54.7722 9.46618Z" fill="#1B2330"/>
</svg>
