<svg width="75" height="78" viewBox="0 0 75 78" fill="none" xmlns="http://www.w3.org/2000/svg">
<path d="M73.105 40.9046H64.1569C63.8824 37.362 61.2588 34.4633 57.8361 33.7493V18.794C57.8361 17.962 57.1617 17.2877 56.3298 17.2877H47.0483V13.5544C47.0482 6.25752 41.083 0.321289 33.7506 0.321289C32.0718 0.321289 30.4647 0.632494 28.9845 1.19992C27.5042 0.632494 25.8971 0.321289 24.2183 0.321289C16.8859 0.321289 10.9207 6.25752 10.9207 13.5544V17.2877H1.63913C0.807189 17.2877 0.132812 17.962 0.132812 18.794V70.3007C0.132812 74.2398 3.34217 77.4446 7.2869 77.4446H67.2087C71.2905 77.4446 74.6113 74.1238 74.6113 70.042V42.4109C74.6113 41.5789 73.9368 40.9046 73.105 40.9046ZM61.1294 40.9046H51.2582C51.5647 38.4773 53.6612 36.5932 56.1938 36.5932C58.7263 36.5932 60.8228 38.4773 61.1294 40.9046ZM54.8233 20.3003V33.6975C51.2686 34.311 48.5122 37.2688 48.2306 40.9046H39.3291C38.4973 40.9046 37.8228 41.5791 37.8228 42.4109V70.0421C37.821 71.6227 38.3279 73.1618 39.2684 74.4321H12.4269V20.3003H20.4528V28.0256C20.4528 28.8575 21.1274 29.5319 21.9592 29.5319C22.7911 29.5319 23.4655 28.8575 23.4655 28.0256V20.3003H44.0356V28.0256C44.0356 28.8575 44.7101 29.5319 45.5419 29.5319C46.3737 29.5319 47.0482 28.8575 47.0482 28.0256V20.3003H54.8233ZM28.9845 4.49905C32.2625 6.20962 34.5033 9.62685 34.5033 13.5544V17.2877H23.4656V13.5544C23.4656 9.62685 25.7064 6.20962 28.9845 4.49905ZM33.7506 3.33392C39.4217 3.33392 44.0356 7.91884 44.0356 13.5544V17.2877H37.5159V13.5544C37.5159 9.4714 35.6481 5.81437 32.7182 3.38513C33.0612 3.35095 33.4058 3.33386 33.7506 3.33392ZM24.2183 3.33392C24.5667 3.33392 24.9111 3.35124 25.2508 3.38498C22.3208 5.81437 20.453 9.47125 20.453 13.5543V17.2875H13.9334V13.5544C13.9332 7.91884 18.5471 3.33392 24.2183 3.33392ZM3.14544 70.3007V20.3003H9.41427V74.432H7.2869C5.00333 74.432 3.14544 72.5787 3.14544 70.3007ZM71.5987 70.042C71.5987 72.4625 69.6293 74.432 67.2087 74.432H45.2252C42.8047 74.432 40.8354 72.4626 40.8354 70.042V43.9172H48.207V49.8701C48.207 50.7019 48.8815 51.3765 49.7133 51.3765C50.5451 51.3765 51.2196 50.7019 51.2196 49.8701V43.9172H61.1681V49.8701C61.1681 50.7019 61.8424 51.3765 62.6744 51.3765C63.5062 51.3765 64.1807 50.7019 64.1807 49.8701V43.9172H71.5987V70.042Z" fill="#1B2330"/>
</svg>
