<svg width="91" height="85" viewBox="0 0 91 85" fill="none" xmlns="http://www.w3.org/2000/svg">
<path d="M87.0772 54.5918C87.0721 58.0644 85.9422 61.4419 83.8568 64.2186C81.7714 66.9952 78.8427 69.0217 75.5092 69.9945C74.0555 70.422 72.548 70.6381 71.0328 70.6363C67.8595 70.6363 64.7574 69.6953 62.1189 67.9323C59.4804 66.1694 57.424 63.6636 56.2096 60.7318C54.9952 57.8001 54.6775 54.574 55.2966 51.4617C55.9157 48.3494 57.4437 45.4906 59.6876 43.2467C61.9315 41.0028 64.7903 39.4747 67.9026 38.8557C71.015 38.2366 74.241 38.5543 77.1727 39.7687C80.1045 40.9831 82.6103 43.0395 84.3733 45.678C86.1362 48.3165 87.0772 51.4186 87.0772 54.5918Z" stroke="#1B2330" stroke-width="3" stroke-linecap="round" stroke-linejoin="round"/>
<path d="M82.1497 52.9878C82.2257 53.5193 82.2638 54.0554 82.2637 54.5923C82.2676 56.8881 81.5633 59.1292 80.2469 61.0101M79.0564 46.7353C79.4928 47.1813 79.8915 47.6627 80.2485 48.1745M53.4093 65.8234H21.3203V1.64551H69.4537V33.7345M86.4031 82.7664C85.8646 83.0596 85.2712 83.238 84.6602 83.2903C84.0493 83.3426 83.4341 83.2676 82.8536 83.0701C82.2732 82.8726 81.7399 82.5568 81.2877 82.1428C80.8354 81.7287 80.4739 81.2254 80.226 80.6646L75.5089 69.995C77.7411 69.3452 79.8051 68.2174 81.5577 66.6898L87.9755 76.4449C88.3116 76.9562 88.5382 77.5316 88.641 78.1348C88.7438 78.738 88.7206 79.356 88.5729 79.9498C88.4252 80.5436 88.1562 81.1004 87.7828 81.5851C87.4093 82.0699 86.9396 82.4721 86.4031 82.7664Z" stroke="#1B2330" stroke-width="3" stroke-linecap="round" stroke-linejoin="round"/>
<path d="M59.8272 72.4896L12.7688 80.7204L1.71094 17.502L14.9027 15.1948M29.3427 9.66748H58.2228M29.3427 16.0853H46.9917M29.3427 28.9209H59.8272M29.3427 35.3386L45.3856 35.337" stroke="#1B2330" stroke-width="3" stroke-linecap="round" stroke-linejoin="round"/>
<path d="M29.3438 52.9877L32.5526 56.1966L40.5749 51.3833" stroke="#1B2330" stroke-width="3" stroke-linecap="round" stroke-linejoin="round"/>
</svg>
