<svg width="83" height="74" viewBox="0 0 83 74" fill="none" xmlns="http://www.w3.org/2000/svg">
<path fill-rule="evenodd" clip-rule="evenodd" d="M6.6797 24.7441C8.09555 26.4999 9.44795 28.4107 10.5239 30.3483C11.8481 32.7316 12.7507 35.1656 12.9255 37.4177C18.5297 41.1111 18.8964 44.1233 19.4591 47.3062C19.9428 50.0448 20.6324 52.9118 26.4326 56.7786C26.7569 56.9943 26.9769 57.3356 27.039 57.7206C27.6538 61.3984 28.5253 62.3405 29.7522 63.4122C31.0426 64.5432 32.6178 65.8054 34.4652 69.4663C34.5921 69.2815 34.719 69.0841 34.8417 68.8768C35.2492 68.1774 35.6103 67.3651 35.5285 66.5556C35.496 66.2367 35.5732 65.9163 35.7472 65.6471C35.9213 65.378 36.1819 65.1761 36.486 65.0749C38.2163 64.4981 40.3824 64.1413 42.5725 64.1639V66.9787C41.1354 66.9599 39.7019 67.1277 38.308 67.4779C38.1726 68.4693 37.7778 69.4423 37.2771 70.2983C36.3365 71.9116 35.073 73.0863 35.073 73.0863C34.9075 73.2409 34.7073 73.3533 34.4892 73.4141C34.2711 73.4749 34.0416 73.4822 33.8201 73.4354C33.5986 73.3886 33.3916 73.2892 33.2166 73.1454C33.0417 73.0017 32.904 72.8179 32.8152 72.6097C30.8409 68.0081 29.2093 66.6853 27.8936 65.536C26.3691 64.2005 25.1648 63.0695 24.3652 58.7853C17.9403 54.3587 17.2408 50.9699 16.6795 47.7969C16.2057 45.102 15.8729 42.5749 10.7989 39.4047C10.5964 39.2778 10.4294 39.1015 10.3137 38.8923C10.198 38.6831 10.1374 38.4479 10.1375 38.2089C10.1375 36.1641 9.28718 33.9261 8.0603 31.7191C7.1084 30.0042 5.92382 28.3148 4.67578 26.7481L6.6797 24.7441Z" fill="#1B2330"/>
<path fill-rule="evenodd" clip-rule="evenodd" d="M74.3022 42.0645C75.6743 42.1956 76.6671 41.8614 77.5485 41.8416C78.97 41.8106 80.2772 42.1618 81.8214 44.4773C81.976 44.7091 82.0584 44.9814 82.0583 45.26C82.0583 47.7772 81.5507 49.2876 81.0472 50.4961C80.4986 51.8119 79.8894 52.6284 80.5762 54.6859C80.6718 54.9734 80.6722 55.284 80.5775 55.5718C80.4828 55.8595 80.2979 56.1092 80.0502 56.2836C74.3854 60.276 63.9413 63.5928 58.0847 63.5928C56.8437 63.5928 55.9426 63.8198 55.2741 64.2443C54.2701 64.8817 53.8272 65.9225 53.431 66.9674C53.0545 67.9602 52.7386 68.977 52.2943 69.864C52.1845 70.0855 52.0183 70.2742 51.8124 70.411C51.6064 70.5478 51.3681 70.628 51.1213 70.6435C50.8746 70.6589 50.6281 70.6091 50.4067 70.499C50.1854 70.3889 49.9969 70.2224 49.8603 70.0163C48.9239 68.6117 47.4051 67.8037 45.7199 67.3736C44.2618 66.9999 42.6753 66.9096 41.1621 67.0196V64.2006C42.9122 64.092 44.737 64.2105 46.4194 64.6406C47.9622 65.0354 49.3851 65.6884 50.5541 66.6417C50.7586 66.0691 50.9659 65.4909 51.2212 64.941C51.7472 63.8043 52.4509 62.7763 53.5297 62.019C54.5874 61.2758 56.0215 60.7724 58.0847 60.7724C63.2376 60.7724 72.2179 57.9801 77.6035 54.5308C77.1649 52.603 77.5626 51.4649 78.1182 50.169C78.5652 49.1254 79.1632 47.9436 79.2309 45.6915C78.8713 45.2008 78.561 44.9018 78.2254 44.7566C77.9179 44.624 77.6077 44.6508 77.2692 44.6832C76.8843 44.7213 76.4753 44.7862 76.0268 44.8341C75.5051 44.8905 74.9368 44.9272 74.3022 44.8933V42.0645Z" fill="#1B2330"/>
<path fill-rule="evenodd" clip-rule="evenodd" d="M24.9779 1.48193C34.7591 5.73655 39.0151 9.98835 43.1739 14.243C47.3382 14.3375 49.4987 15.4163 51.3136 16.3244C52.7915 17.0634 53.9691 17.6895 56.334 17.0987C56.542 17.046 56.7592 17.0416 56.9692 17.0857C57.1791 17.1299 57.3762 17.2215 57.5453 17.3534C57.7145 17.4854 57.8512 17.6543 57.9451 17.8473C58.0389 18.0402 58.0874 18.252 58.0869 18.4666C58.0869 23.2853 62.9479 25.6671 62.9479 25.6671C63.1823 25.7839 63.3795 25.9638 63.5173 26.1865C63.655 26.4092 63.7279 26.666 63.7277 26.9279C63.7277 29.5353 64.1311 31.1444 64.8249 32.3121C65.5314 33.5023 66.5101 34.2271 67.5128 35.1085C69.0598 36.468 70.6942 38.0953 71.9154 41.4164C73.1578 41.9593 74.1605 42.1032 75.0095 42.0961V44.9053C73.7318 44.9321 72.1763 44.7163 70.1484 43.7009C69.9827 43.6183 69.8348 43.5038 69.7133 43.3639C69.5918 43.224 69.4991 43.0616 69.4405 42.8858C68.1445 38.9951 66.1688 37.7202 64.5471 36.2607C62.656 34.5585 61.0723 32.697 60.92 27.7345C59.4111 26.76 56.1394 24.2174 55.4117 20.1264C53.6447 20.3097 52.3896 19.9346 51.1345 19.3691C49.2307 18.5117 47.334 17.0563 42.5745 17.0563C42.3866 17.0565 42.2006 17.019 42.0274 16.9461C41.8543 16.8732 41.6974 16.7663 41.5662 16.6319C37.4526 12.4252 33.4265 8.21712 23.7129 4.01045L24.9779 1.48193Z" fill="#1B2330"/>
<path fill-rule="evenodd" clip-rule="evenodd" d="M5.36866 27.6408C3.92815 25.7509 2.3616 23.9606 0.679701 22.2819C0.470889 22.0727 0.333089 21.8032 0.285769 21.5115C0.238449 21.2197 0.284001 20.9204 0.41599 20.656L3.23642 15.0151C3.40374 14.6812 3.69666 14.4274 4.05092 14.3092C4.40518 14.191 4.79185 14.2182 5.12611 14.3847C5.69019 14.6654 6.15133 14.8529 6.53632 14.9488C6.78029 15.0109 6.94952 15.0687 7.08208 14.9982C7.24566 14.9108 7.3204 14.726 7.43181 14.5399C7.59821 14.2621 7.75898 13.9476 7.94372 13.626C8.51203 12.6304 9.26227 11.5488 10.7106 10.7675L7.59962 6.6201C7.47528 6.4543 7.38901 6.26313 7.34694 6.0602C7.30488 5.85726 7.30806 5.64755 7.35627 5.44599C7.40447 5.24442 7.49651 5.05596 7.62583 4.89402C7.75515 4.73207 7.91858 4.60061 8.10448 4.50901C12.039 2.57278 16.2485 0.946805 21.1955 0.151444C21.4434 0.11129 21.6975 0.138066 21.9316 0.229005C23.6845 0.912959 25.2809 1.5955 26.7447 2.27805L24.855 4.51747C23.6711 3.98118 22.474 3.47475 21.2646 2.99867C17.4147 3.65865 14.0429 4.86015 10.8897 6.30703L14.0866 10.5687C14.2261 10.7547 14.3175 10.9724 14.3525 11.2023C14.3876 11.4322 14.3652 11.6672 14.2875 11.8863C14.2097 12.1055 14.079 12.302 13.9069 12.4584C13.7348 12.6148 13.5267 12.7262 13.3011 12.7827C11.0335 13.3496 10.5188 14.8247 9.95186 15.8147C9.38637 16.8061 8.73767 17.4929 7.7477 17.7411C7.13848 17.8934 6.31633 17.8736 5.16418 17.4661L3.38731 21.017C4.74418 22.4215 6.02642 23.8963 7.22874 25.4352L5.36866 27.6408Z" fill="#1B2330"/>
</svg>
